<?xml version="1.0" standalone="no"?><!DOCTYPE svg PUBLIC "-//W3C//DTD SVG 1.1//EN" "http://www.w3.org/Graphics/SVG/1.1/DTD/svg11.dtd"><svg t="1581580961715" class="icon" viewBox="0 0 1024 1024" version="1.1" xmlns="http://www.w3.org/2000/svg" p-id="9053" xmlns:xlink="http://www.w3.org/1999/xlink" width="200" height="200"><defs><style type="text/css"></style></defs><path d="M541.582222 473.315556v-195.697778c-9.102222 0-20.48-2.275556-27.306666-2.275556h-2.275556c-11.377778 2.275556-22.755556 2.275556-38.684444 4.551111v193.422223H72.817778V318.577778c0-25.031111 20.48-43.235556 43.235555-43.235556h182.044445C250.311111 263.964444 213.902222 243.484444 211.626667 204.8c-2.275556-45.511111 50.062222-120.604444 125.155555-102.4 77.368889 18.204444 131.982222 77.368889 172.942222 129.706667 40.96-52.337778 102.4-120.604444 182.044445-131.982223C762.311111 91.022222 816.924444 159.288889 810.097778 204.8c-6.826667 38.684444-43.235556 61.44-91.022222 70.542222h179.768888c25.031111 0 43.235556 20.48 43.235556 43.235556v154.737778H541.582222zM345.884444 143.36c-36.408889-13.653333-59.164444 2.275556-75.093333 27.306667-9.102222 13.653333-18.204444 34.133333-4.551111 47.786666 36.408889 36.408889 134.257778 34.133333 202.524444 27.306667-31.857778-38.684444-70.542222-81.92-122.88-102.4z m409.6 75.093333c25.031111-34.133333-25.031111-102.4-79.644444-77.368889-52.337778 25.031111-88.746667 63.715556-122.88 104.675556 27.306667 2.275556 56.888889 2.275556 84.195556 2.275556 36.408889-2.275556 100.124444-4.551111 118.328888-29.582223zM475.591111 939.804444H150.186667c-22.755556 0-40.96-18.204444-40.96-40.96V505.173333h366.364444v434.631111z m430.08-40.96c0 22.755556-18.204444 40.96-40.96 40.96H539.306667v-432.355555h366.364444v391.395555z m0 0" fill="" p-id="9054"></path></svg>