<?xml version="1.0" standalone="no"?><!DOCTYPE svg PUBLIC "-//W3C//DTD SVG 1.1//EN" "http://www.w3.org/Graphics/SVG/1.1/DTD/svg11.dtd"><svg t="1581582130484" class="icon" viewBox="0 0 1024 1024" version="1.1" xmlns="http://www.w3.org/2000/svg" p-id="7271" xmlns:xlink="http://www.w3.org/1999/xlink" width="200" height="200"><defs><style type="text/css"></style></defs><path d="M800 192H640c0-70.4-57.6-128-128-128s-128 57.6-128 128H224c-17.6 0-32 14.4-32 32v704c0 17.6 14.4 32 32 32h576c17.6 0 32-14.4 32-32V224c0-17.6-14.4-32-32-32z m-288-32c17.6 0 32 14.4 32 32s-14.4 32-32 32-32-14.4-32-32 14.4-32 32-32z m256 736H256V256h64v64h384v-64h64v640z m-64-384H320v-64h384v64z m0 128H320v-64h384v64zM576 768H320v-64h256v64z" p-id="7272"></path></svg>