<?xml version="1.0" standalone="no"?><!DOCTYPE svg PUBLIC "-//W3C//DTD SVG 1.1//EN" "http://www.w3.org/Graphics/SVG/1.1/DTD/svg11.dtd"><svg t="1581582673429" class="icon" viewBox="0 0 1024 1024" version="1.1" xmlns="http://www.w3.org/2000/svg" p-id="6186" xmlns:xlink="http://www.w3.org/1999/xlink" width="200" height="200"><defs><style type="text/css"></style></defs><path d="M832 192v640H192V192h640m32-64H160c-17.6 0-32 14.4-32 32v704c0 17.6 14.4 32 32 32h704c17.6 0 32-14.4 32-32V160c0-17.6-14.4-32-32-32zM768 640H576v64h192v-64zM512 512H256v192h256V512z m256 0H576v64h192v-64z m0-192H256v128h512V320z" p-id="6187"></path></svg>