<?xml version="1.0" standalone="no"?><!DOCTYPE svg PUBLIC "-//W3C//DTD SVG 1.1//EN" "http://www.w3.org/Graphics/SVG/1.1/DTD/svg11.dtd"><svg t="1581581895812" class="icon" viewBox="0 0 1024 1024" version="1.1" xmlns="http://www.w3.org/2000/svg" p-id="6417" xmlns:xlink="http://www.w3.org/1999/xlink" width="200" height="200"><defs><style type="text/css"></style></defs><path d="M695.169024 335.880192c-6.72768-6.729728-15.675392-10.436608-25.194496-10.436608-9.519104 0-18.47296 3.70688-25.198592 10.436608l-93.804544 93.804544-93.77792-93.77792c-6.73792-6.731776-15.681536-10.436608-25.20064-10.436608-9.519104 0-18.468864 3.704832-25.198592 10.436608-13.89568 13.893632-13.89568 36.499456 0 50.395136l58.126336 58.13248-56.71936 0c-3.813376 0-6.899712 3.09248-6.899712 6.893568l0 57.481216c0 3.807232 3.086336 6.899712 6.899712 6.899712l107.145216 0 0 47.712256-107.145216 0c-3.813376 0-6.899712 3.09248-6.899712 6.899712l0 57.481216c0 3.807232 3.086336 6.899712 6.899712 6.899712l107.145216 0 0 107.149312c0 19.65056 15.986688 35.637248 35.637248 35.637248s35.637248-15.986688 35.637248-35.637248l0-107.149312 107.149312 0c3.807232 0 6.899712-3.09248 6.899712-6.899712l0-57.481216c0-3.807232-3.09248-6.899712-6.899712-6.899712l-107.149312 0L586.620928 515.70688l107.149312 0c3.807232 0 6.899712-3.09248 6.899712-6.899712l0-57.481216c0-3.807232-3.09248-6.893568-6.899712-6.893568l-56.75008 0 58.150912-58.150912C709.066752 372.385792 709.066752 349.773824 695.169024 335.880192L695.169024 335.880192zM986.824704 328.179712c-23.81824-56.313856-57.909248-106.883072-101.326848-150.300672-43.419648-43.419648-93.986816-77.50656-150.300672-101.322752-58.314752-24.666112-120.246272-37.175296-184.07424-37.175296-63.821824 0-125.751296 12.509184-184.064 37.175296-56.313856 23.814144-106.87488 57.909248-150.290432 101.322752-43.419648 43.419648-77.508608 93.986816-101.326848 150.300672-9.771008 23.097344-17.696768 47.003648-23.650304 71.299072l-23.566336-53.035008c-5.715968-12.857344-18.50368-21.174272-32.585728-21.174272-4.995072 0-9.859072 1.036288-14.452736 3.078144-8.697856 3.862528-15.372288 10.883072-18.788352 19.771392-3.416064 8.884224-3.1744 18.56512 0.690176 27.267072l73.0624 164.438016c0.370688 0.858112 0.790528 1.7408 1.263616 2.619392 0.0512 0.096256 0.1024 0.192512 0.1536 0.288768 0.425984 0.776192 0.837632 1.476608 1.257472 2.142208 0.03072 0.045056 0.075776 0.11264 0.116736 0.178176 0.350208 0.53248 0.73728 1.089536 1.14688 1.64864 0.157696 0.223232 0.354304 0.48128 0.55296 0.741376 0.274432 0.350208 0.54272 0.692224 0.827392 1.026048 0.385024 0.473088 0.817152 0.960512 1.253376 1.427456l0.116736 0.13312c0.212992 0.227328 0.432128 0.4608 0.649216 0.684032 0.229376 0.229376 0.47104 0.462848 0.710656 0.690176l0.090112 0.09216c0.301056 0.278528 0.60416 0.5632 0.909312 0.837632 0.264192 0.233472 0.505856 0.446464 0.751616 0.649216 0.415744 0.350208 0.872448 0.7168 1.339392 1.071104 0.141312 0.11264 0.258048 0.2048 0.370688 0.284672 0.62464 0.462848 1.275904 0.909312 1.984512 1.366016l0 0c0.04096 0.03072 0.09216 0.06144 0.13312 0.086016 0.628736 0.401408 1.294336 0.78848 1.97632 1.15712l0.221184 0.12288c1.452032 0.780288 2.955264 1.462272 4.472832 2.025472 0.034816 0.016384 0.07168 0.026624 0.106496 0.04096 0.649216 0.237568 1.329152 0.4608 2.070528 0.684032l0.219136 0.065536 0.192512 0.055296c0.679936 0.192512 1.31072 0.354304 1.918976 0.493568l0.024576 0.004096 0.294912 0.07168c0.04096 0.01024 0.086016 0.02048 0.131072 0.03072 0.67584 0.141312 1.39264 0.272384 2.121728 0.380928 0.243712 0.034816 0.497664 0.069632 0.751616 0.100352l0.13312 0.014336c0.432128 0.055296 0.858112 0.100352 1.284096 0.14336l0.147456 0.014336c0.305152 0.026624 0.60416 0.0512 0.909312 0.065536 0.432128 0.026624 0.866304 0.04096 1.308672 0.0512l0.098304 0.006144c0.237568 0.01024 0.477184 0.02048 0.714752 0.02048 0.940032 0 1.91488-0.045056 2.97984-0.13312l0.065536-0.006144c0.045056-0.006144 0.088064-0.008192 0.13312-0.008192 0.968704-0.09216 1.939456-0.223232 2.88768-0.387072 0.161792-0.03072 0.301056-0.055296 0.432128-0.075776 0.968704-0.18432 1.85344-0.380928 2.691072-0.60416 0.137216-0.034816 0.274432-0.075776 0.415744-0.12288 0.026624-0.004096 0.04096-0.008192 0.065536-0.014336 0.694272-0.202752 1.417216-0.432128 2.136064-0.68608l0.13312-0.045056c0.212992-0.069632 0.425984-0.147456 0.638976-0.229376 0.638976-0.237568 1.263616-0.495616 1.86368-0.759808 0.024576-0.01024 0.055296-0.02048 0.079872-0.036864 0.106496-0.045056 0.202752-0.096256 0.305152-0.147456 0.303104-0.137216 0.557056-0.258048 0.815104-0.385024 0.843776-0.415744 1.585152-0.813056 2.289664-1.222656 0.106496-0.06144 0.219136-0.126976 0.329728-0.198656l0.086016-0.0512c1.939456-1.16736 3.735552-2.492416 5.382144-3.954688l135.364608-118.597632c14.778368-12.949504 16.27136-35.510272 3.319808-50.292736-6.766592-7.72096-16.539648-12.152832-26.814464-12.152832-8.640512 0-16.975872 3.137536-23.474176 8.833024l-64.270336 56.303616c35.956736-186.978304 202.203136-325.709824 394.389504-325.709824 221.444096 0 401.598464 180.156416 401.598464 401.598464 0 221.433856-180.156416 401.584128-401.598464 401.584128-95.819776 0-188.602368-34.301952-261.26336-96.585728-6.457344-5.533696-14.692352-8.579072-23.185408-8.579072-10.426368 0-20.289536 4.538368-27.068416 12.447744-12.787712 14.91968-11.057152 37.459968 3.864576 50.24768 85.573632 73.351168 194.832384 113.739776 307.652608 113.739776 63.821824 0 125.755392-12.50304 184.07424-37.1712 56.313856-23.81824 106.881024-57.9072 150.294528-101.320704 43.419648-43.415552 77.508608-93.98272 101.326848-150.296576C1011.490816 638.005248 1024 576.075776 1024 512.253952 1024 448.432128 1011.48672 386.49856 986.824704 328.179712L986.824704 328.179712zM986.824704 328.179712" p-id="6418"></path></svg>