<?xml version="1.0" standalone="no"?><!DOCTYPE svg PUBLIC "-//W3C//DTD SVG 1.1//EN" "http://www.w3.org/Graphics/SVG/1.1/DTD/svg11.dtd"><svg t="1581581947481" class="icon" viewBox="0 0 1024 1024" version="1.1" xmlns="http://www.w3.org/2000/svg" p-id="6905" xmlns:xlink="http://www.w3.org/1999/xlink" width="200" height="200"><defs><style type="text/css"></style></defs><path d="M957.866667 170.666667c-2.133333-59.733333-51.2-106.666667-110.933333-106.666667 0 0-2.133333 0-2.133333 0 0 0-2.133333 0-2.133333 0L83.2 64C78.933333 64 72.533333 66.133333 68.266667 70.4 66.133333 74.666667 61.866667 78.933333 61.866667 85.333333l0 761.6c0 0 0 0 0 0C64 908.8 113.066667 960 174.933333 960c0 0 2.133333 0 2.133333 0 0 0 2.133333 0 2.133333 0l362.666667 0c25.6 0 29.866667-10.666667 29.866667-21.333333L571.733333 554.666667l172.8 0 0 381.866667c0 6.4 4.266667 12.8 8.533333 17.066667 4.266667 4.266667 8.533333 6.4 14.933333 6.4l168.533333 0c10.666667 0 21.333333-8.533333 21.333333-21.333333 0 0 0 0 0 0 0 0 0-2.133333 0-2.133333L957.866667 172.8C957.866667 172.8 957.866667 172.8 957.866667 170.666667zM915.2 174.933333C915.2 177.066667 917.333333 177.066667 915.2 174.933333l0 134.4C915.2 354.133333 874.666667 384 829.866667 384c-44.8 0-83.2-29.866667-83.2-72.533333 0 0 0 0 0-2.133333l0 0L746.666667 106.666667l-42.666667 0 0 202.666667 0 0c0 0 0 0 0 2.133333-2.133333 44.8-42.666667 72.533333-87.466667 72.533333-44.8 0-83.2-29.866667-83.2-72.533333 0 0 0 0 0-2.133333l0 0L533.333333 106.666667l-42.666667 0 0 202.666667 0 0c0 0 0 0 0 2.133333-2.133333 44.8-42.666667 72.533333-87.466667 72.533333-44.8 0-81.066667-27.733333-83.2-72.533333L320 106.666667l-42.666667 0 0 204.8c-2.133333 44.8-42.666667 72.533333-87.466667 72.533333-46.933333 0-83.2-29.866667-83.2-74.666667L106.666667 106.666667l736 0c0 0 2.133333 0 2.133333 0 2.133333 0 2.133333 0 4.266667 0C883.2 106.666667 915.2 138.666667 915.2 174.933333zM104.533333 846.933333 104.533333 396.8C128 416 157.866667 426.666667 189.866667 426.666667c44.8 0 83.2-19.2 106.666667-51.2 23.466667 32 61.866667 51.2 106.666667 51.2 44.8 0 83.2-19.2 106.666667-51.2 23.466667 32 61.866667 51.2 106.666667 51.2 44.8 0 83.2-19.2 106.666667-51.2 23.466667 32 61.866667 51.2 106.666667 51.2 34.133333 0 64-10.666667 87.466667-29.866667L917.333333 917.333333l-128 0L789.333333 533.333333c0-12.8-8.533333-21.333333-21.333333-21.333333l-213.333333 0c-12.8 0-21.333333 8.533333-21.333333 21.333333 0 0 0 0 0 0 0 0 0 0 0 0L533.333333 917.333333 179.2 917.333333c0 0-2.133333 0-2.133333 0-2.133333 0-2.133333 0-2.133333 0C138.666667 917.333333 104.533333 885.333333 104.533333 846.933333z" p-id="6906"></path></svg>