<?xml version="1.0" standalone="no"?><!DOCTYPE svg PUBLIC "-//W3C//DTD SVG 1.1//EN" "http://www.w3.org/Graphics/SVG/1.1/DTD/svg11.dtd"><svg t="1581581937006" class="icon" viewBox="0 0 1024 1024" version="1.1" xmlns="http://www.w3.org/2000/svg" p-id="6783" xmlns:xlink="http://www.w3.org/1999/xlink" width="200" height="200"><defs><style type="text/css"></style></defs><path d="M960 448c0 88-72 160-160 160H352c-52.8 0-96-43.2-96-96s43.2-96 96-96h416v64H352c-17.6 0-32 14.4-32 32s14.4 32 32 32h448c52.8 0 96-43.2 96-96s-43.2-96-96-96H288c-88 0-160 72-160 160s72 160 160 160h352v64H288C164 736 64 636 64 512s100-224 224-224h512c88 0 160 72 160 160z" p-id="6784"></path></svg>