<?xml version="1.0" standalone="no"?>
<!DOCTYPE svg PUBLIC "-//W3C//DTD SVG 1.1//EN" "http://www.w3.org/Graphics/SVG/1.1/DTD/svg11.dtd" >
<svg xmlns="http://www.w3.org/2000/svg">
<metadata>Generated by IcoMoon</metadata>
<defs>
<font id="Ionicons" horiz-adv-x="1024">
<font-face units-per-em="1024" ascent="960" descent="-64" />
<missing-glyph horiz-adv-x="1024" />
<glyph unicode="&#x20;" horiz-adv-x="512" d="" />
<glyph unicode="&#xe900;" glyph-name="black" d="M796.83 445.964q45.805 0 86.52-17.304t71.253-47.84 48.35-71.253 17.813-86.521-17.813-86.521-48.35-71.253-71.253-48.35-86.52-17.813q-46.824 0-87.54 17.813t-71.252 48.35-47.84 71.253-17.305 86.52 17.304 86.522 47.841 71.252 71.253 47.841 87.538 17.304zM907.78 188.437q15.268 0 25.956 9.161t10.688 24.43-10.688 25.956-25.956 10.688h-219.865q-15.269 0-25.956-10.688t-10.688-25.956 10.688-24.43 25.956-9.16h219.865zM500.623 130.417q4.071-20.357 13.232-42.751t26.974-45.296 44.788-45.296 68.707-41.734q-27.483-6.107-64.127-10.179-31.555-4.072-76.342-6.616t-102.807-2.545q-29.519 0-68.199 2.036t-80.413 5.598-82.45 8.652-74.306 10.18-57.002 10.178-29.519 10.18q-10.179 8.141-15.777 49.876t4.58 107.896q6.108 37.662 30.537 57.511t57.511 31.555 68.2 20.867 62.6 26.465q21.375 13.233 33.081 25.956t16.286 24.939 4.58 25.447-1.017 29.519q-2.036 23.411-16.286 37.153t-30.537 27.992q-8.143 7.125-14.76 19.849t-11.705 25.956q-5.090 15.269-10.18 32.573-7.125 2.036-14.25 7.125-6.107 5.090-12.723 14.25t-11.706 26.466q-6.108 17.304-4.58 31.554t5.598 25.448 13.232 21.375q0 38.68 4.072 77.36 4.071 32.573 14.25 70.235t31.555 67.18q19.34 28.502 43.26 46.824t48.35 28.5 49.368 13.742 48.35 3.563q29.519 0 57.002-7.125t50.895-18.322 41.733-25.448 29.52-28.5q26.464-32.573 38.68-71.762t17.303-74.815q5.090-40.716 5.090-82.45 7.125-5.089 11.197-13.232 4.071-7.125 6.616-18.322t0.509-28.501q-2.036-21.376-8.652-34.1t-14.76-19.848q-9.16-8.144-19.34-11.197-5.090-17.304-10.179-32.573-5.090-13.232-11.705-25.956t-14.76-19.849q-9.16-8.143-14.25-16.286t-8.143-16.287-6.617-17.813-10.688-19.849q-47.84-73.288-55.475-132.326t5.599-115.022z" />
<glyph unicode="&#xe901;" glyph-name="ding" d="M162.872 892.172c1.871 0 3.761-0.369 5.546-1.149 27.71-12.088 207.856-93.984 364.025-148.711 75.311-26.388 264.656-92.305 290.828-102.207 28.365-10.734 43.279-25.373 50.203-43.784 6.925-18.398 2.754-42.86-7.265-59.659-33.984-64.408-145.7-239.493-145.7-239.493h118.467l-242.143-293.337 66.249 204.544-111.597 0.742 37.443 128.322c-20.132-9.303-63.426-22.55-80.040-25.464-4.481-0.79-12.595-1.875-23.261-1.875-28.876 0-76.415 7.964-120.914 51.333 0 0-30.329 29.498-39.882 48.716-2.521 5.061-1.321 9.291 0.081 12.010 1.526 2.941 4.729 6.038 9.516 6.844 5.193 0.885 230.757 31.41 230.757 31.41s-184.576 4.173-230.757 13.060c-56.583 10.891-122.406 84.306-134.578 149.638-0.887 4.736 1.185 9.055 3.446 11.293 2.777 2.745 6.033 4.022 9.845 4.022 0.74 0 1.502-0.048 2.289-0.144 6.556-0.794 345.637-74.166 345.637-74.166s-320.816 105.863-345.637 126.721c-50.615 42.548-76.171 132.445-66.125 190.66 0.465 2.212 1.608 5.243 5.031 7.833 2.409 1.832 5.445 2.841 8.536 2.841zM162.872 955.624c-16.877 0-33.543-5.602-46.928-15.773-14.41-10.988-24.723-26.703-28.645-44.801l-0.092-0.505c-0.097-0.385-0.247-1.149-0.381-1.919l-0.049-0.338c-11.378-65.914 9.403-161.122 62.318-224.338-11.033-16.386-15.34-36.629-11.615-56.516 12.78-68.595 65.083-138.702 125.015-175.761-4.794-17.884-2.943-36.789 5.538-53.817 13.315-26.78 43.504-57.218 52.438-65.909 45.835-44.671 104.505-69.299 165.153-69.299 3.804 0 7.409 0.098 10.786 0.268l-5.84-20.024c-1.612-5.322-2.539-11.438-2.539-17.771 0-34.896 28.168-63.213 63.007-63.454h0.023l24.956-0.166-39.554-122.117c-9.384-28.979 3.145-60.538 29.852-75.186 8.794-4.923 19.296-7.822 30.476-7.822 0.002 0 0.005 0 0.007 0v0c18.439 0 36.56 8.032 48.964 23.062l242.142 293.337c15.638 18.945 18.938 45.218 8.466 67.441s-32.834 36.405-57.399 36.405h-3.621c32.126 51.768 68.391 111.437 86.311 145.171 19.767 34.281 24.186 78.37 11.196 112.88-13.908 36.979-43.224 64.161-87.131 80.778-20.692 7.828-132.723 46.972-222.743 78.423l-69.56 24.322c-136.435 47.814-293.158 117.468-344.656 140.358l-14.98 6.631c-9.763 4.268-20.181 6.442-30.916 6.442z" />
<glyph unicode="&#xe902;" glyph-name="indent" d="M408 518h480c4.4 0 8 3.6 8 8v56c0 4.4-3.6 8-8 8h-480c-4.4 0-8-3.6-8-8v-56c0-4.4 3.6-8 8-8zM400 314c0-4.4 3.6-8 8-8h480c4.4 0 8 3.6 8 8v56c0 4.4-3.6 8-8 8h-480c-4.4 0-8-3.6-8-8v-56zM904 800h-784c-4.4 0-8-3.6-8-8v-56c0-4.4 3.6-8 8-8h784c4.4 0 8 3.6 8 8v56c0 4.4-3.6 8-8 8zM904 168h-784c-4.4 0-8-3.6-8-8v-56c0-4.4 3.6-8 8-8h784c4.4 0 8 3.6 8 8v56c0 4.4-3.6 8-8 8zM142.4 317.9l156.3 123.1c4.5 3.5 4.5 10.3 0 13.9l-156.3 123.2c-5.8 4.6-14.4 0.5-14.4-6.9v-246.3c0-7.4 8.5-11.6 14.4-7z" />
<glyph unicode="&#xe903;" glyph-name="layout" d="M832 768v-640h-640v640h640zM864 832h-704c-17.6 0-32-14.4-32-32v-704c0-17.6 14.4-32 32-32h704c17.6 0 32 14.4 32 32v704c0 17.6-14.4 32-32 32zM768 320h-192v-64h192v64zM512 448h-256v-192h256v192zM768 448h-192v-64h192v64zM768 640h-512v-128h512v128z" />
<glyph unicode="&#xe904;" glyph-name="person-list" d="M690.338 298.526c-41.498 18.374-103.937 65.868-195.163 82.197 23.332 24.985 40.564 63.996 58.672 110.231 10.528 26.786 8.425 49.62 8.425 82.185 0 24.002 4.507 62.528-1.502 83.71-20.073 71.577-71.002 91.29-130.507 91.29-59.583 0-110.473-19.828-130.557-91.452-5.848-21.24-1.355-59.627-1.355-83.548 0-32.623-1.764-55.56 8.787-82.359 18.247-46.477 35.683-85.444 58.865-110.347-90.428-16.525-148.928-63.73-190.16-82.047-85.32-38.11-83.219-79.828-83.219-79.828v-70.698l685.644 0.128v70.57c0 0.001-2.262 41.88-87.93 79.968zM659.56 732.195h271.187v-59.352h-271.187v59.352zM659.56 602.235h165.782v-60.375h-165.782v60.375zM659.56 472.275h237.417v-60.375h-237.417v60.375z" />
<glyph unicode="&#xe905;" glyph-name="qr" d="M256 704h73.143v-73.143h-73.143v73.143zM841.143 118.857h73.143v-73.143h-73.143v73.143zM841.143 265.143h-73.143v146.286h-219.429v-365.715h73.143v292.572h73.143v-146.286h219.429v219.429h-73.143zM694.857 118.857h73.143v-73.143h-73.143v73.143zM109.714 484.571h365.716v365.715h-365.716v-365.716zM182.857 777.143h219.429v-219.429h-219.429v219.429zM256 265.143h73.143v-73.143h-73.143v73.143zM109.714 45.714h365.716v365.716h-365.716v-365.715zM182.857 338.286h219.429v-219.429h-219.429v219.429zM694.857 704h73.143v-73.143h-73.143v73.143zM548.571 850.286v-365.716h365.715v365.716h-365.716zM841.143 557.714h-219.429v219.429h219.429v-219.429z" />
<glyph unicode="&#xe906;" glyph-name="sem" d="M101.344 109.328h237.328v381.344l-64.944 45.328-172.384-146.672zM394.672 109.328h237.328v379.12l-114.656-96.448-122.672 66.672zM688 533.328v-424h237.328v421.344l-101.312 133.328zM140.544 495.456l129.072 107.968 246.576-150.112 292.416 275.392c1.056 0.992 1.92 2.144 2.816 3.248l49.248-49.808 79.312 223.2-227.52-73.296 54.448-55.072c-0.72-0.56-1.488-1.024-2.176-1.664l-256.912-241.968-244.080 148.576-164.256-137.376c-13.568-11.344-15.36-31.52-4.016-45.072s31.536-15.376 45.072-4.016zM920 65.344h-820c-17.664 0-32-14.336-32-32s14.336-32 32-32h820c17.664 0 32 14.336 32 32s-14.336 32-32 32z" />
<glyph unicode="&#xe907;" glyph-name="service" d="M270.999 567.931c15.256 5.243 36.322 9.811 70.469 15.976 14.606 2.637 76.12 13.187 90.621 15.772 71.978 12.828 118.76 24.427 128.256 30.751 9.215 6.137 14.537 12.359 18.158 19.929 3.717 7.772 4.897 12.801 8.904 36.185 2.781 16.231 5.091 25.804 10.456 37.422 10.525 22.794 29.477 40.138 55.831 46.245 63.31 14.671 109.989-49.969 155.929-144.402 21.614-44.428 40.184-107.9 48.832-172.49 3.66 20.251 5.528 40.96 5.528 61.953 0 192.471-157.476 348.706-351.984 348.706s-351.983-156.234-351.983-348.705c0-21.867 2.026-43.424 5.994-64.476 13.604 49.275 56.191 100.362 104.989 117.133zM393.86 251.43c30.761-28.006 72.745-45.251 119.029-45.251 47.653 0 90.748 18.28 121.729 47.764 4.853 4.618 9.192 0.943 6.383-5.56-23.062-53.394-71.763-90.202-128.112-90.202-56.413 0-105.159 36.891-128.19 90.381-2.777 6.448 3.289 8.211 9.16 2.867zM924.109 571.808c39.292-12.024 67.868-48.579 67.868-91.809 0-6.911-0.731-13.653-2.118-20.151 1.349-13.127 2.118-28.365 2.118-43.783 0-0.022 0-0.045 0-0.067v0.003c0-247.412-200.567-447.979-447.979-447.979h-31.999c-44.18 0-79.996 21.489-79.996 47.997 0 26.509 35.816 47.998 79.996 47.998 33.4 0 62.018-12.282 73.997-29.728 183.534 19.966 328.236 169.265 341.058 354.854-5.896-2.094-12.79-3.695-19.922-4.509l-0.439-0.041c-7.757-22.894-16.166-42.213-25.951-60.69l1.072 2.219c-18.795-36.098-42.803-69.091-71.035-97.999-30.673-31.407-66.216-12.872-39.181 35.307 11.158 19.886 20.145 41.281 23.883 62.692 17.641 101.022-23.242 230.246-43.406 271.693-9.766 20.074-24.214 44.94-38.705 65.968 0.162 0.962 0.245 1.458 0.19 1.142 0.908 5.294 1.394 7.312 0.507 5.389-0.779-1.674-1.542-3.063-2.384-4.397l0.095 0.161c-17.423 24.939-34.659 43.871-43.637 41.791-17.335-4.017-15.525-28.768-22.606-58.239-0.583 0.301-0.908 0.479-1.229 0.662l0.239-0.124c-2.139 1.189-3.089 1.852-3.383 2.074 1.228-1.21 2.517-2.592 3.969-4.263-5.881-23.483-17.67-49.742-49.311-70.813-46.823-31.182-255.010-52.913-304.019-69.756-31.876-10.954-60.527-51.715-65.545-79.966-8.257-46.477 3.086-130.621 23.394-166.015 3.542-6.174 7.362-12.206 11.36-18.061 31.638-46.335 1.589-60.692-27.518-34.647-36.361 32.537-66.904 71.351-89.895 114.72-9.318 17.102-18.204 37.306-25.429 58.282l-0.86 2.873c-47.975 5.327-85.282 46.009-85.282 95.405 0 43.23 28.575 79.785 67.868 91.809 27.778 201.182 201.701 356.17 412.11 356.17s384.329-154.989 412.107-356.171z" />
<glyph unicode="&#xe908;" glyph-name="store" d="M1024 197.12v87.040s-56.32 10.24-56.32 15.36 0 10.24-5.12 10.24c5.12 10.24 40.96 40.96 40.96 40.96l-61.44 87.040s-40.96-35.84-51.2-40.96c-5.12 0-10.24 5.12-15.36 5.12s-20.48 56.32-20.48 56.32h-87.040s-10.24-51.2-25.6-56.32c-5.12 0-10.24-5.12-15.36-5.12-10.24 5.12-51.2 40.96-51.2 40.96l-61.44-87.040s30.72-30.72 35.84-40.96c0-5.12 0-5.12-5.12-10.24-15.36-5.12-51.2-10.24-51.2-10.24v-87.040s46.080-10.24 56.32-15.36c0-5.12 5.12-10.24 5.12-15.36-10.24-15.36-40.96-35.84-40.96-35.84l66.56-87.040s51.2 35.84 61.44 35.84c5.12 0 10.24-5.12 15.36-5.12 10.24-5.12 15.36-51.2 15.36-51.2h87.040s5.12 51.2 10.24 51.2 10.24 5.12 20.48 5.12c5.12-5.12 40.96-35.84 40.96-35.84l87.040 87.040s-30.72 20.48-40.96 35.84c0 5.12 5.12 10.24 5.12 15.36-10.24 0 40.96 10.24 40.96 10.24zM803.84 130.56c-61.44 0-107.52 46.080-107.52 107.52s46.080 107.52 107.52 107.52 107.52-46.080 107.52-107.52c0-56.32-46.080-107.52-107.52-107.52zM138.24 878.080h675.84c25.6 0 40.96 15.36 40.96 40.96s-15.36 40.96-40.96 40.96h-675.84c-25.6 0-40.96-15.36-40.96-40.96 0-20.48 20.48-40.96 40.96-40.96zM240.64 611.84c0-61.44 51.2-117.76 117.76-117.76s117.76 51.2 117.76 117.76c0-61.44 51.2-117.76 117.76-117.76s117.76 51.2 117.76 117.76c0-61.44 51.2-117.76 117.76-117.76s117.76 51.2 117.76 117.76l-81.92 215.040h-783.36l-81.92-215.040c0-61.44 51.2-117.76 117.76-117.76 71.68 0 122.88 56.32 122.88 117.76zM547.84 186.88h-394.24v271.36h-66.56v-286.72c0-25.6 25.6-56.32 51.2-56.32h424.96c-10.24 25.6-15.36 51.2-15.36 71.68z" />
<glyph unicode="&#xe909;" glyph-name="tree" d="M799.986 735.986v95.995c0 17.672 14.326 31.999 31.999 31.999s31.999-14.326 31.999-31.999v-95.995h95.995c17.672 0 31.999-14.326 31.999-31.999s-14.326-31.999-31.999-31.999h-95.995v-95.995c0-17.672-14.326-31.999-31.999-31.999s-31.999 14.326-31.999 31.999v95.995h-95.995c-17.672 0-31.999 14.326-31.999 31.999s14.326 31.999 31.999 31.999h95.995zM799.986 96.017h127.994v127.993h-127.994v-127.993zM448.002 96.017h127.994v127.993h-127.994v-127.993zM426.671 288.008h170.659c23.563 0 42.665-19.101 42.665-42.665v-170.659c0-23.563-19.101-42.665-42.665-42.665h-170.659c-23.563 0-42.665 19.102-42.665 42.665v170.659c0 23.563 19.102 42.665 42.665 42.665zM96.020 96.017h127.994v127.993h-127.994v-127.993zM448.002 671.989h127.994v127.994h-127.994v-127.994zM480.001 479.999v127.994h-53.331c-23.563 0-42.665 19.101-42.665 42.665v170.658c0 23.563 19.101 42.665 42.665 42.665h170.659c23.563 0 42.665-19.101 42.665-42.665v-170.659c0-23.563-19.101-42.665-42.665-42.665h-53.331v-127.994h319.985c17.672 0 31.999-14.326 31.999-31.999v-159.992h53.331c23.563 0 42.665-19.101 42.665-42.665v-170.659c0-23.563-19.101-42.665-42.665-42.665h-170.66c-23.563 0-42.665 19.102-42.665 42.665v170.66c0 23.563 19.101 42.665 42.665 42.665h53.331v127.993h-639.969v-127.994h53.331c23.563 0 42.665-19.101 42.665-42.665v-170.659c0-23.563-19.102-42.665-42.665-42.665h-170.659c-23.563 0-42.665 19.102-42.665 42.665v170.66c0 23.563 19.102 42.665 42.665 42.665h53.331v159.992c0 17.672 14.326 31.999 31.999 31.999h319.985z" />
<glyph unicode="&#xe90a;" glyph-name="watch" d="M599.28 409.675l-88.020 226.372-96.119-180.845-53.647 55.186-90.776-56.565 25.607-14.764 58.172 36.255 70.188-72.267 81.272 152.872 89.862-231.24 76.63 161.338 31.234-66.458 34.24 5.74-65.283 138.841zM867.173 234.261v469.067c0 17.551-13.084 31.741-29.245 31.741h-650.815c-16.16 0-29.244-14.191-29.244-31.741v-469.067h-95.912v-38.799c0-17.556 13.104-31.74 29.245-31.74h845.83c16.161 0 29.265 14.185 29.265 31.74v38.799h-99.123zM574.024 220.941h-119.8v20.597h119.8v-20.597zM807.004 272.827h-588.945v396.806h588.945v-396.806z" />
<glyph unicode="&#xe90b;" glyph-name="wechat" horiz-adv-x="1228" d="M86.177 168.010c0 0 0 0-0.001 0-11.731 0-21.241 9.51-21.241 21.241 0 3.008 0.625 5.87 1.753 8.464l-0.053-0.137 61.246 143.648c-37.627 31.206-67.788 67.315-89.636 107.527-25.331 46.718-38.246 96.579-38.246 148.188 0 49.594 11.907 97.647 35.405 142.847 22.503 43.295 54.619 82.099 95.474 115.307 83.13 67.655 193.388 104.905 310.492 104.905s227.325-37.25 310.443-104.869c40.843-33.233 72.971-72.037 95.474-115.307 23.498-45.2 35.405-93.253 35.405-142.847h-42.482c0 176.723-178.932 320.542-398.841 320.542s-398.89-143.818-398.89-320.578c0-44.448 11.13-87.488 33.099-127.906 21.423-39.447 52.070-74.573 91.032-104.383 5.093-3.92 8.342-10.019 8.342-16.876 0-3.011-0.627-5.876-1.756-8.471l0.053 0.137-45.941-107.745 146.671 67.837c2.632 1.257 5.72 1.99 8.98 1.99 2.393 0 4.693-0.395 6.839-1.124l-0.15 0.044c44.86-15.254 96.535-24.059 150.266-24.059 0.511 0 1.022 0.001 1.533 0.002h-0.079c18.951 0 37.655 1.054 56.058 3.106l-2.264-0.205 4.588-42.227c-17.505-2.002-37.792-3.144-58.345-3.144-0.013 0-0.026 0-0.039 0h0.003c-0.404-0.001-0.881-0.002-1.359-0.002-55.563 0-109.109 8.633-159.371 24.631l3.718-1.022-189.274-87.561c-2.609-1.234-5.667-1.954-8.894-1.954-0.005 0-0.011 0-0.016 0h0.001zM1151.578-64c-3.233 0.001-6.297 0.726-9.038 2.021l0.129-0.055-161.685 74.816c-39.981-12.752-85.968-20.101-133.672-20.101-0.397 0-0.793 0.001-1.189 0.002h0.061c-101.373-0.036-196.835 32.237-268.872 90.813-35.442 28.839-63.322 62.509-82.851 100.099-19.39 35.992-30.783 78.768-30.783 124.204s11.394 88.212 31.48 125.624l-0.697-1.421c19.542 37.627 47.422 71.272 82.851 100.099 72 58.588 167.499 90.85 268.836 90.85s196.86-32.262 268.86-90.85c35.442-28.839 63.322-62.509 82.851-100.099 19.352-36.001 30.74-78.768 30.781-124.191v-0.013c0-44.909-11.191-88.228-33.245-128.841-18.631-34.301-44.193-65.167-76.078-91.906l51.803-121.485c1.075-2.456 1.7-5.318 1.7-8.326 0-11.731-9.51-21.241-21.241-21.241 0 0-0.001 0-0.001 0v0zM982.38 56.733c3.237 0 6.305-0.725 9.050-2.021l-0.129 0.055 119.094-55.080-36.413 85.521c-1.077 2.458-1.703 5.323-1.703 8.334 0 6.857 3.249 12.956 8.293 16.839l0.050 0.037c33.208 25.38 59.292 55.262 77.511 88.811 18.643 34.325 28.099 70.847 28.099 108.559 0 150.348-152.521 272.671-339.998 272.671s-340.047-122.298-340.047-272.659 152.521-272.671 339.986-272.671c0.38-0.001 0.83-0.002 1.279-0.002 45.855 0 89.956 7.512 131.138 21.373l-2.897-0.846c1.995 0.685 4.294 1.080 6.686 1.080 0.001 0 0.002 0 0.002 0v0zM230.626 744.169c0-0.002 0-0.004 0-0.007 0-25.359 20.558-45.917 45.917-45.917s45.917 20.558 45.917 45.917c0 0.002 0 0.005 0 0.007v0c0 0.002 0 0.004 0 0.007 0 25.359-20.558 45.917-45.917 45.917s-45.917-20.558-45.917-45.917c0-0.002 0-0.005 0-0.007v0zM491.403 744.169c0-0.002 0-0.004 0-0.007 0-25.359 20.558-45.917 45.917-45.917s45.917 20.558 45.917 45.917c0 0.002 0 0.005 0 0.007v0c0 0.002 0 0.004 0 0.007 0 25.359-20.558 45.917-45.917 45.917s-45.917-20.558-45.917-45.917c0-0.002 0-0.005 0-0.007v0zM669.874 450.003c0-0.002 0-0.004 0-0.007 0-25.359 20.558-45.917 45.917-45.917s45.917 20.558 45.917 45.917c0 0.002 0 0.005 0 0.007v0c0 0.002 0 0.004 0 0.007 0 25.359-20.558 45.917-45.917 45.917s-45.917-20.558-45.917-45.917c0-0.002 0-0.005 0-0.007v0zM930.65 450.003c0-0.002 0-0.004 0-0.007 0-25.359 20.558-45.917 45.917-45.917s45.917 20.558 45.917 45.917c0 0.002 0 0.005 0 0.007v0c0 0.002 0 0.004 0 0.007 0 25.359-20.558 45.917-45.917 45.917s-45.917-20.558-45.917-45.917c0-0.002 0-0.005 0-0.007v0z" />
<glyph unicode="&#xe90c;" glyph-name="android" d="M288 423.2v-179.2c0-13.8 9-28 22.8-28h57.2v-104c0-26.6 21.4-48 48-48s48 21.4 48 48v104h98v-104c0-15 6.8-28.4 17.6-37.2 7.8-6.8 18.2-10.8 29.4-10.8h1c26.6 0 48 21.4 48 48v104h55.2c14 0 22.8 14.2 22.8 27.8v332.2h-448v-152.8zM816 608c-26.6 0-48-21.4-48-48v-192c0-26.6 21.4-48 48-48s48 21.4 48 48v192c0 26.6-21.4 48-48 48zM208 608c-26.6 0-48-21.4-48-48v-192c0-26.6 21.4-48 48-48s48 21.4 48 48v192c0 26.6-21.4 48-48 48zM622.4 781.8l37 43.8c0.8 1-0.4 3.2-2.6 5-2.2 1.6-4.8 2-5.4 0.8l-38.4-45.6c-27.2 10.8-60.4 17.6-101.2 17.6-41 0.2-74.4-6.4-101.6-17l-38 44.8c-0.8 1-3.2 0.8-5.4-0.8s-3.4-3.6-2.6-5l36.6-43.2c-96.4-41.8-110.8-144.4-112.8-174.4h447.2c-1.8 30.2-16 131.4-112.8 174zM413.6 682.2c-14.8 0-27 12-27 26.6s12 26.6 27 26.6c14.8 0 27-12 27-26.6s-12-26.6-27-26.6zM610.4 682.2c-14.8 0-27 12-27 26.6s12 26.6 27 26.6c14.8 0 27-12 27-26.6s-12.2-26.6-27-26.6z" />
<glyph unicode="&#xe90d;" glyph-name="apple" d="M667.2 652.2c-67.2 0-95.6-33-142.4-33-48 0-84.6 32.8-142.8 32.8-57 0-117.8-35.8-156.4-96.8-54.2-86-45-248 42.8-386 31.4-49.4 73.4-104.8 128.4-105.4h1c47.8 0 62 32.2 127.8 32.6h1c64.8 0 77.8-32.4 125.4-32.4h1c55 0.6 99.2 62 130.6 111.2 22.6 35.4 31 53.2 48.4 93.2-127 49.6-147.4 234.8-21.8 305.8-38.4 49.4-92.2 78-143 78zM652.4 832c-40-2.8-86.6-29-114-63.2-24.8-31-45.2-77-37.2-121.6h3.2c42.6 0 86.2 26.4 111.6 60.2 24.6 32.2 43.2 77.8 36.4 124.6z" />
<glyph unicode="&#xe90e;" glyph-name="bitcoin" d="M821 401.6c-10 23-25.4 43.2-56.2 60.2-16.4 9-32.2 15.6-50.8 20 10.8 5 20 10.8 32.6 22 15 13.2 26.2 31.4 31.2 46.6 5.2 15 8.2 36 7 56.4-2.2 33.6-8.8 66.2-26.4 89.6s-42.4 41.4-75.2 54c-25.2 9.6-51 15.6-91 17.8v127.8h-80v-128h-64v128h-82v-128h-174.2v-96h55.8c17.4 0 29.2-1.6 35.2-4.6 6.2-3 10.6-7 13-12 2.6-5 3.8-16.8 3.8-35v-346.4c0-18-1.2-29.6-3.8-34.8s-4-9.8-10.2-12.6c-6.2-2.8-6.4-2.6-23.6-2.6h-52.8l-17.4-96h174v-128h82v128h64v-128h80v128.8c52 2.6 89 9.4 118.8 20.6 38.6 14.4 68.2 35.4 89.4 63s29.8 69.8 31.6 102.4c1.4 29-1.8 66.4-10.8 86.8zM448 660h64v-148h-64v148zM448 236v180h64v-180h-64zM592 652.2c12-5 19.8-15 27.6-25.4 8.6-11.4 13-26.6 13-42.8 0-15.6-5.8-29-15-41-7.6-9.8-13.6-16.6-25.6-22.2v131.4zM649.6 278.8c-15.6-13.8-24.6-20.2-44.2-27.6-4-1.6-9.4-2.8-13.4-3.8v165.6c10-1.6 15.2-3.6 22.6-6.8 15.6-6.6 30.4-13.8 39.6-26.4s16-31.2 16-49.4c0-21.8-5.6-38.4-20.6-51.6z" />
<glyph unicode="&#xe90f;" glyph-name="buffer" d="M141.4 631l338.4-163.4c8.8-4.2 20.6-6.4 32.2-6.4s23.4 2.2 32.2 6.4l338.4 163.4c17.8 8.6 17.8 22.6 0 31.2l-338.4 163.4c-8.8 4.2-20.6 6.4-32.2 6.4s-23.4-2.2-32.2-6.4l-338.4-163.4c-17.8-8.6-17.8-22.6 0-31.2zM882.6 463.6s-61.8 29.8-70 33.8-10.4 3.8-19-0.2-249.6-120.4-249.6-120.4c-9-4.2-20.6-6.4-32.2-6.4s-23.4 2.2-32.2 6.4c0 0-234.6 113.2-245.6 118.6-12 5.8-15.4 5.8-26.2 0.6l-66.8-32.2c-17.8-8.6-17.8-22.6 0-31.2l338.4-163.4c8.8-4.2 20.6-6.4 32.2-6.4s23.4 2.2 32.2 6.4l338.4 163.4c18.2 8.4 18.2 22.4 0.4 31zM882.6 265s-61.8 29.8-70 33.8-10.4 3.8-19-0.2-249.4-120.6-249.4-120.6c-9-4.2-20.6-6.4-32.2-6.4s-23.4 2.2-32.2 6.4c0 0-234.6 113.2-245.6 118.6-12 5.8-15.4 5.8-26.2 0.6l-66.8-32.2c-17.8-8.6-17.8-22.6 0-31.2l338.4-163.4c8.8-4.4 20.6-6.4 32.2-6.4s23.4 2.2 32.2 6.4l338.4 163.4c18 8.6 18 22.6 0.2 31.2z" />
<glyph unicode="&#xe910;" glyph-name="chrome" d="M377.6 448.15c0-73.892 60.486-134.356 134.4-134.356s134.398 60.462 134.398 134.356c0 73.89-60.484 134.358-134.398 134.358s-134.4-60.468-134.4-134.358zM953.504 524.41c-0.018-0.010-0.032-0.076-0.048-0.084-3.402 19.754-8.080 39.676-13.978 57.676h-0.214c5.966-18 10.704-38 14.144-58h-0.004c-3.438 20-8.176 40-14.14 58h-310.78c38.088-34 62.716-80.35 62.716-134.104 0-33.592-8.968-62.568-24.628-89.448l-204.484-355.354s-0.018-0.528-0.028-0.528l-0.020-0.568h0.030l-0.010 0.524c16.406-1.84 33.062-2.524 49.94-2.524 13.684 0 27.218 0.786 40.598 2.004 22.488 2.066 42.791 5.41 62.588 10.068l-3.034-0.602c199.208 45.48 347.848 223.722 347.848 436.648 0 25.998-2.242 51.506-6.496 76.292zM512 269.008c-67.202 0-123.202 35.82-154.57 89.57l-205.692 355.8c-19.545-26.103-36.887-55.784-50.685-87.367l-1.121-2.879c-23.118-54.022-35.932-113.504-35.932-175.982 0-125.39 51.568-238.72 134.632-320.018 58.684-57.438 133.090-98.866 216.176-117.238l0.058 0.102 155.366 269.208c-17.918-6.716-38.062-11.196-58.232-11.196zM182.584 750.85l154.7-266.5c15.682 80.624 87.346 143.65 174.716 143.65h410.344c-13.842 30-31.188 60.648-51.558 87.876 0.078-0.042 0.156-0.106 0.234-0.148 20.268-27.152 37.536-57.728 51.324-87.728h0.344c-13.768 30-31.028 60.76-51.336 87.98-0.23 0.12-0.458 0.336-0.684 0.514-81.718 108.972-211.95 179.506-358.668 179.506-52.744 0-103.346-9.138-150.344-25.872-69.23-24.654-130.606-65.834-179.374-118.812l0.284-0.486 0.018 0.020z" />
<glyph unicode="&#xe911;" glyph-name="closed-captioning" d="M64 768v-640h896v640h-896zM876 448.4c0-46.8-2.8-82.4-6.6-140.4s-33.6-98.8-103.4-105.2c-69.8-6.4-167.6-7-254-6.8-85.8-0.2-184 0.2-254 6.8-69.8 6.4-99.4 47.2-103.4 105.2s-6.6 93.6-6.6 140.4c0 46.8 0.2 77.2 6.6 140.4s40.2 98.4 103.4 104.8 172 6.4 254 6.4 190.8 0 254-6.4c63.2-6.4 97-41.8 103.4-104.8 6.4-63.2 6.6-93.8 6.6-140.4zM715 399.2v-1.4c0-32.6-20.2-51.8-47.2-51.8s-45.2 21.6-47.8 51.8c0 0-2.4 15.8-2.4 47.8s2.8 52 2.8 52c4.8 34 21.4 51.8 48.4 51.8 26.8 0 48.2-23.2 48.2-58.4v-1h90.2c0 43.8-11 83.2-33.2 108-22 24.8-55 37.2-98.6 37.2-21.8 0-41.8-2.8-60-8.6s-34-15.8-47.2-30.2c-13.2-14.4-23.4-33.6-30.8-57.8-7.2-24.2-11-54.6-11-91.4 0-36 3-66 8.8-90.2 6-24.2 14.6-43.4 26.2-57.8s26.2-24.4 43.6-30c17.6-5.6 38.2-8.4 61.8-8.4 50 0 86 12.8 107.6 37.4s32.4 60.6 32.4 107.8h-92.2c0.4 0 0.4-5 0.4-6.8zM405.2 399.2v-1.4c0-32.6-20.2-51.8-47.2-51.8s-45.2 21.6-47.8 51.8c0 0-2.4 15.8-2.4 47.8s2.8 52 2.8 52c4.8 34 21.4 51.8 48.4 51.8 26.8 0 48.2-23.2 48.2-58.4v-1h90.2c0 43.8-11 83.2-33.2 108-22 24.8-55 37.2-98.6 37.2-21.8 0-41.8-2.8-60-8.6s-34-15.8-47.2-30.2c-13.2-14.4-23.4-33.6-30.8-57.8-7.2-24.2-11-54.6-11-91.4 0-36 3-66 8.8-90.2 6-24.2 14.6-43.4 26.2-57.8s26.2-24.4 43.6-30c17.6-5.6 38.2-8.4 61.8-8.4 50 0 86 12.8 107.6 37.4s32.4 60.6 32.4 107.8h-92.2c0.4 0 0.4-5 0.4-6.8z" />
<glyph unicode="&#xe912;" glyph-name="css3" d="M128 896l69.892-806.438 313.642-89.562 314.518 89.7 69.948 806.3h-768zM709.352 226.204l-197.214-56.25-196.916 56.496-13.494 155.55h96.506l6.866-79.124 107.172-30.326 0.264-0.546h0.068l106.934 29.704 11.224 128.292h-224.762l-8 100h241.292l8.792 102h-368.084l-8 98h481.16l-43.808-503.796z" />
<glyph unicode="&#xe913;" glyph-name="dropbox" d="M354 806l-226-147.8 156.2-125.4 227.8 141zM128 407.4l226-147.8 158 132.2-227.8 141zM512 391.8l158-132.2 226 147.8-156.2 125.4zM896 658.2l-226 147.8-158-132.2 227.8-141zM512.4 363.4l-159.6-132-68.8 44.4v-49.8l228-136 228 136v49.8l-68.4-44.4z" />
<glyph unicode="&#xe914;" glyph-name="euro" d="M468 416v96h262.188l14.298 96h-276.486v3.66c0 71.84 29.95 116.172 158.5 116.172 52.528 0 111.734-4.996 186.378-17.484l19.122 129.92c-76.024 17.486-141.388 23.732-211.886 23.732-229.462 0-328.114-82.45-328.114-234.86v-21.14h-100v-96h100v-96h-100v-96h100v-53.14c0-152.408 98.594-234.86 328.054-234.86 70.5 0 135.696 6.246 211.718 23.732l-19.238 129.92c-74.644-12.488-133.562-17.484-186.090-17.484-128.552 0-158.446 37.478-158.446 126.172v25.66h233.59l14.296 96h-247.884z" />
<glyph unicode="&#xe915;" glyph-name="facebook" d="M853.6 832h-683.2c-23.4 0-42.4-19-42.4-42.4v-683.2c0-23.4 19-42.4 42.4-42.4h341.6v304h-91.8v112h91.8v82.8c0 99.2 68.8 153.2 157.4 153.2 42.4 0 88-3.2 98.6-4.6v-103.6h-70.6c-48.2 0-57.4-22.8-57.4-56.4v-71.4h114.8l-15-112h-99.8v-304h213.6c23.4 0 42.4 19 42.4 42.4v683.2c0 23.4-19 42.4-42.4 42.4z" />
<glyph unicode="&#xe916;" glyph-name="freebsd-devil" d="M1005.2 730c-45 87.4-116 102-116 102s31-64 32-102c0.8-32.2-11-56-54.4-67s-61.6 4-95.6 35-83.2 53-145.2 56c-80 4-154-18-154-18-40 50 40 160 40 160-149-59-187.4-166.6-192-227.4-3.8-48.2 17-81.6 17-81.6s-1-55.6-10-84c-6.2-19.6-33.8-50-52-69-24.4-25.4-25-77 0-114s88-55 134-79 63-42 63-42 2-16.6 1-30.6-6.4-28-18-36.4c-11-7.8-31-1-41 4s-10 12.4-21 16-14.6 8-13 22 4 18-7 37-37 19-59 16-34.6-13.6-34.6-13.6l-32.6 20s17 31.2 10.4 71.2c-14.6 87.6-100 125.6-100 125.6l20.8-88.8s2.2 5.2 12.8 12.8 16.2 7.2 16.2 7.2 13.2-15.2 18.2-50.6c5-36-13.4-54.4-13.4-54.4l-56.6 36 2 29-77.6 20.6 32.4-73.4 30 8 48-45.4s-31.4-23.4-66-23.4c-22 0-44 12-44 12s-2.8 2-1.6 11c1.4 10 13.6 25 13.6 25h-92s54.6-77.4 130-77.4c62 0 88.4 25 88.4 25l37.6-37.4s6-11 0-14-14-7-18-30 36-58 36-58c43.6-35.6 14-64 14-64h544c-18 26-45 36-64 64 0 0-89.6 116.8-3.6 180.8 114.8 85.4 85.6 138.8 82.4 202.8 0 0 63.6 13.2 118.6 67.2s77.8 141.6 39.8 215.2zM390 554c-33.8-9-45-71-45-71 3 126 115 186 130 178s-13-78-42-128c0 0-16 28.2-43 21zM464 524s36 112 75 119 83-42 83-124-52-130.8-85.6-138.4c-33-7.6-46-4-46-4s55 43.2 47 113.6c-5.6 49.4-62.8 48.4-73.4 33.8z" />
<glyph unicode="&#xe917;" glyph-name="game-controller" d="M270.2 550.8c-21.4 0-38.6-17.4-38.6-38.8s17.4-38.8 38.6-38.8c21.2 0 38.6 17.4 38.6 38.8s-17.2 38.8-38.6 38.8zM932.6 462.2c-42.4 177-87.2 271-177 297.6-19.6 5.8-36.2 8-51.4 8-55.2 0-93.8-29.4-192.2-29.4s-137 29.4-192.2 29.4c-15.4 0-32-2.2-51.4-8-89.8-26.6-134.6-120.8-177-297.6-42.4-177-34.6-304.8 15.4-328.6 8.2-3.8 16.4-5.6 25-5.6 43.4 0 90.2 47.6 135.4 104 51.4 64.2 64.2 66 220.6 66h48.6c156.2 0 169.2-1.6 220.6-66 45-56.4 92-104 135.4-104 8.4 0 16.8 1.8 25 5.6 49.8 24 57.4 151.8 15.2 328.6zM270.4 432.8c-43.2 0-78.4 35.6-78.4 79.2s35.2 79.2 78.4 79.2c43.4 0 78.4-35.6 78.4-79.2 0.2-43.8-35-79.2-78.4-79.2zM616.2 471.8c-22.2 0-40.2 18-40.2 40.2s18 40.2 40.2 40.2c22.2 0 40.2-18 40.2-40.2s-18-40.2-40.2-40.2zM704 384c-22.2 0-40.2 18-40.2 40 0 22.4 18 40.2 40.2 40.2s40.2-17.8 40.2-40.2c0-22-18-40-40.2-40zM704 559.6c-22.2 0-40.2 18-40.2 40.2s18 40.2 40.2 40.2c22.2 0 40.2-18 40.2-40.2s-18-40.2-40.2-40.2zM791.8 471.8c-22.2 0-40.2 18-40.2 40.2s18 40.2 40.2 40.2c22.2 0 40.2-18 40.2-40.2s-18-40.2-40.2-40.2z" />
<glyph unicode="&#xe918;" glyph-name="github" d="M512 896c-247.4 0-448-205.8-448-459.4 0-203 128.4-375 306.4-435.8 2.8-0.6 5.2-0.8 7.6-0.8 16.6 0 23 12.2 23 22.8 0 11-0.4 39.8-0.6 78.2-16.8-3.8-31.8-5.4-45.2-5.4-86.2 0-105.8 67-105.8 67-20.4 53-49.8 67.2-49.8 67.2-39 27.4-0.2 28.2 2.8 28.2h0.2c45-4 68.6-47.6 68.6-47.6 22.4-39.2 52.4-50.2 79.2-50.2 21 0 40 6.8 51.2 12 4 29.6 15.6 49.8 28.4 61.4-99.4 11.6-204 51-204 227 0 50.2 17.4 91.2 46 123.2-4.6 11.6-20 58.4 4.4 121.6 0 0 3.2 1 10 1 16.2 0 52.8-6.2 113.2-48.2 35.8 10.2 74 15.2 112.2 15.4 38-0.2 76.4-5.2 112.2-15.4 60.4 42 97 48.2 113.2 48.2 6.8 0 10-1 10-1 24.4-63.2 9-110 4.4-121.6 28.6-32.2 46-73.2 46-123.2 0-176.4-104.8-215.2-204.6-226.6 16-14.2 30.4-42.2 30.4-85 0-61.4-0.6-111-0.6-126 0-10.8 6.2-23 22.8-23 2.4 0 5.2 0.2 8 0.8 178.2 60.8 306.4 233 306.4 435.8 0 253.6-200.6 459.4-448 459.4z" />
<glyph unicode="&#xe919;" glyph-name="google" d="M636.4 498.2l-3.2 14h-313.2v-128.2h181.4c-18.8-90-96.8-127.2-168.2-127.2-52 0-100.4 15.6-136.6 50.6-37.2 36.2-57.8 86.2-57.8 140.8 0 54.2 19.6 103.6 55.2 139.2 35.4 35.4 84 50.8 137.4 50.8 61 0 99.8-27.6 116.2-42.2l96 95.4c-27 23.4-100.6 82.6-215.4 82.6-88.6 0-173.4-33.6-235.4-95.6-61-61-92.8-148.8-92.8-230.4s30-165.2 89.2-226.6c63.4-65.4 153.2-99.4 245.8-99.4 84.2 0 163.8 33 220.6 92.6 56 58.8 84.8 140.2 84.8 225.4-0.2 36-3.8 57.4-4 58.2zM1024 512h-114v114h-82v-114h-114v-82h114v-114h82v114h114z" />
<glyph unicode="&#xe91a;" glyph-name="html5" d="M128 896l69.872-806.426 313.666-89.574 314.49 89.708 69.972 806.292h-768zM743.994 632h-368l7.982-102h352.016l-27.010-302.772-197-56.188-197.364 55.952-13.528 155.008h96.508l6.846-78.574 107.538-29.562 106.844 29.83 11.148 128.306h-334.002l-25.142 299.178 481.578-0.032-8.414-99.146z" />
<glyph unicode="&#xe91b;" glyph-name="ionitron" d="M936.8 421.6c-5.4 68.4-24.4 118.4-65.8 114.6 12.8-29.2 24.4-96.2 17.4-144-2.8 51.8-12.6 100.4-34.4 144-64.2 129.2-201.2 214.8-355 206.2-171.8-9.6-310-133.4-344-293.6l-22.8-3.2c-34.4-4.8-53.8-69.8-43.4-145 10.6-75.4 47-132.4 81.4-127.6l31.6 4.4c69.4-112.6 197-184.6 338.6-176.8 170.6 9.4 308 131.8 343.4 290.4l14.8 0.8c30.4 5 43.6 62.4 38.2 129.8zM180.6 432c21.4-16.4 50.8-56.6 58.2-110.2 7.8-55.4-9.6-108.2-26.8-128.6 12 29.6 16.2 74.6 9.4 123.8-6.6 48-22 89.4-40.8 115zM548.2 199.6c-17-1-31.6 12-32.6 29s12 31.4 29.2 32.4c17 1 31.6-12 32.6-29s-12.2-31.4-29.2-32.4zM710.2 209c-17-1-31.6 12-32.6 29s12 31.4 29.2 32.4c17 1 31.6-12 32.6-29 0.8-17-12.2-31.6-29.2-32.4zM331 820s0-0.2 0 0c0.2-0.2 0.2-0.4 0.2-0.4 0.2-0.4 0.4-0.6 0.6-1v-0.2c0.8-2 2.2-3.8 4.6-5.4 4-3 10-4.8 17.2-6 6.8-1 15-1.4 23.8-1 2 0 3.8 0.2 5.8 0.4-0.8 0.8-1.6 1.8-2.4 2.6h-2.6c-8.6-0.2-16.4 0.4-23.2 1.8-7 1.4-12.8 3.6-16.8 6.8-1.2 1-2 1.8-2.8 2.8-0.4 1.4-0.4 3 0 4.6 1 4.6 4.8 9.6 11 14.8 5.4 4.6 12.8 9.4 21.8 14 1.8 0.8 3.4 1.8 5.2 2.6 0.2 0.2 0.6 0.2 1 0.4-1.6-6.6-1.8-13.8-0.4-21 4.6-23.8 23.2-40.6 46.4-41.2l8-48.6 25.4 4-8 48.6c21.6 9.2 32.6 32.2 28 56-1.4 7-4 13.4-7.8 19-10.6 1.6-31.2 1.6-58.4-4.2 2.2 0.6 4.2 1.4 6.4 2 15.2 4.2 29.8 7 43 8.4 1.2 0.2 2.4 0.2 3.6 0.4 2.4 0.2 4.8 0.4 7 0.6h1.2c8.2 0.4 15.4 0.2 21.6-0.6 4.8-0.6 8.8-1.6 12.2-2.8-1.2-1.8-1.8-4-1.8-6.4 0-5.4 3.6-10 8.6-11.6-1.2-1.8-2.6-3.8-4.2-5.6s-3.6-3.8-5.8-5.6c-2.2-1.8-4.6-3.6-7-5.4l-13-7.6-0.6-3c0.2 0 0.4 0.2 0.4 0.2l16.8 9.4c2.4 1.6 4.8 3.2 6.8 4.8 2.4 1.8 4.4 3.6 6.4 5.6 1.8 1.8 3.4 3.8 4.8 5.6l0.6 1.2c6 0.8 10.8 5.8 10.8 12 0 6.8-5.4 12.2-12.2 12.2-2 0-3.8-0.6-5.6-1.4-4 2.4-9.6 4.2-16.4 5.4-8.6 1.6-19.2 2-31 1.2-1.4 0-2.8-0.2-4.2-0.4s-2.6-0.4-4-0.4c-10.6 7-23.8 10-37.4 7.4-15.8-3-28.4-13-35.6-26-2.6-1-5.2-2.2-7.6-3.4-1.4-0.6-2.6-1.2-4-1.8-11.8-5.8-21.2-12.2-27.8-18.2-6.2-5.8-9.8-11.4-10.6-16.6-0.4-2.8 0-5.6 1.4-8 0.2-0.2 0.4-0.6 0.6-1z" />
<glyph unicode="&#xe91c;" glyph-name="linkedin" d="M834.4 832h-640.8c-35 0-65.6-25.2-65.6-59.8v-642.2c0-34.8 30.6-65.8 65.6-65.8h640.6c35.2 0 61.6 31.2 61.6 65.8v642.2c0.2 34.6-26.4 59.8-61.4 59.8zM366 192h-110v342h110v-342zM314.8 586h-0.8c-35.2 0-58 26.2-58 59 0 33.4 23.4 59 59.4 59s58-25.4 58.8-59c0-32.8-22.8-59-59.4-59zM768 192h-110v187c0 44.8-16 75.4-55.8 75.4-30.4 0-48.4-20.6-56.4-40.6-3-7.2-3.8-17-3.8-27v-194.8h-110v342h110v-47.6c16 22.8 41 55.6 99.2 55.6 72.2 0 126.8-47.6 126.8-150.2v-199.8z" />
<glyph unicode="&#xe91d;" glyph-name="markdown" d="M895.318 768h-766.636c-35.674 0-64.682-28.968-64.682-64.616v-510.698c0-35.672 29.008-64.686 64.682-64.686h766.636c35.674 0 64.682 29.014 64.682 64.688v510.696c0 35.648-29.008 64.616-64.682 64.616zM568.046 256h-112.096v192l-84.080-107.756-84.044 107.756v-192h-112.088v384h112.088l84.044-135.96 84.080 135.96h112.096v-384zM735.36 256l-139.27 192h84v192h112.086v-192h84.054l-140.87-192z" />
<glyph unicode="&#xe91e;" glyph-name="nodejs" d="M511.834 0c-12.283 0.017-23.764 3.435-33.557 9.361l0.291-0.163-105.97 64.88c-15.828 9.124-8.046 12.406-2.886 14.282 21.13 7.562 27.426 11.314 49.894 24.57 2.412 1.334 5.494 0.848 7.91-0.644l79.42-47.008c2.952-1.7 7.114-1.7 9.862 0l310.376 184.492c2.95 1.754 4.83 5.292 4.83 8.882v373.61c0 3.7-1.88 7.184-4.898 9.056l-310.24 189.344c-2.956 1.788-6.842 1.788-9.796 0l-310.038-189.41c-3.088-1.806-5.032-5.396-5.032-8.99v-373.61c0-3.626 1.944-7.026 4.962-8.778l79.858-47.944c47.22-24.408 75.18 0.34 75.18 29.222v367.398c0 5.304 4.094 9.454 9.192 9.454h45.618c5.030 0 9.194-4.144 9.194-9.454v-367.396c0-65.126-38.706-102.496-98.398-102.496-18.312 0-32.794 0-73.104 20.558l-83.168 49.562c-20.592 12.304-33.334 35.292-33.334 59.91v378.93c0 24.632 12.742 47.568 33.33 59.834l317.37 189.728c20.054 11.76 46.748 11.76 66.664 0l317.3-189.728c20.596-12.298 33.336-35.25 33.336-59.834v-378.93c0-24.618-12.74-47.5-33.336-59.906l-317.3-189.548c-9.524-5.778-21.035-9.198-33.345-9.198-0.018 0-0.036 0-0.054 0h0.003l-0.134-0.036zM609.886 256.004c-129.22 0-168.012 63.22-168.012 118.542 0 5.258 4.096 9.458 9.124 9.458h41.042c4.564 0 8.454-3.4 9.124-8.032 6.168-43.204 33.496-62.3 108.648-62.3 66.798 0 94.182 20.692 94.182 57.368 0 21.184-6.926 36.848-110.814 47.394-86.854 8.882-140.576 28.746-140.576 100.59 0 66.27 53.992 104.98 144.468 104.98 92.256 0 152.924-28 158.346-101.658 0.204-2.674-0.736-5.258-2.482-7.288-1.742-1.93-4.156-3.054-6.706-3.054h-41.182c-4.292 0-8.048 3.124-8.918 7.426-8.802 33.906-33.94 46.804-99.126 46.804-72.972 0-81.492-25.506-81.492-45.214 0-23.926 10.062-30.882 108.588-44.344 97.522-13.326 143.866-32.234 143.866-103.104 0-71.562-57.616-117.566-158.15-117.566l0.070-0.002z" />
<glyph unicode="&#xe91f;" glyph-name="npm" d="M455.2 533.8h56.8v-114.2h-56.8zM0 648v-342.8h284.4v-57.2h227.6v57.2h512v342.8h-1024zM284.4 362.2h-56.8v171.4h-57v-171.4h-113.8v228.6h227.6v-228.6zM568.8 362.2h-113.8v-57.2h-113.8v285.8h227.6v-228.6zM967.2 362.2h-56.8v171.4h-56.8v-171.4h-56.8v171.4h-56.8v-171.4h-113.8v228.6h341.4v-228.6z" />
<glyph unicode="&#xe920;" glyph-name="octocat" d="M356.8 385c-18.2 0-33.8-8.4-46.4-25.6-12.6-17-18.8-38-18.8-62.8 0-25 6.4-46 18.8-63 12.6-17 28-25.6 46.4-25.6 17 0 31.8 8.6 44.2 25.6 12.6 17 18.8 38 18.8 63 0 24.8-6.4 45.8-18.8 62.8-12.6 17.2-27.2 25.6-44.2 25.6zM669.4 385c-18 0-33.8-8.4-46.4-25.6-12.6-17-18.8-38-18.8-62.8 0-25 6.4-46 18.8-63 12.6-17 28.2-25.6 46.4-25.6 17 0 31.8 8.6 44.4 25.6s18.8 38 18.8 63c0 24.8-6.4 45.8-18.8 62.8-12.6 17.2-27.2 25.6-44.4 25.6zM891.6 616c-0.2 0 5.4 28.6 0.6 78.4-4.4 49.8-15 95.6-32.2 137.6 0 0-8.8-1.6-25.6-5.8s-44.2-12.6-81.8-29.6c-37-17-76-39.6-116.6-67-27.6 7.8-68.8 11.8-124 11.8-52.6 0-93.8-4-124-11.8-89.2 61.8-163.8 96-224.2 102.4-17.2-42-27.8-88-32-138-4.8-49.8 0.8-78.6 0.8-78.6-48.6-52.6-68.6-128.4-68.6-191 0-48.4 1.4-92.2 12.2-131 11.2-38.6 25.4-70.2 42.2-94.4 17.2-24.2 38-45.6 63.2-63.8 25-18.6 48-32 68.8-40.4 21-8.8 44.8-15.2 72-19.8 26.6-4.8 46.8-7.2 61-8 0 0 56-3 128.8-3s128.6 3 128.6 3c14 0.8 34.2 3.2 61 8 27 4.6 51 11.2 71.8 19.8s43.8 21.8 69 40.4c25 18 45.8 39.4 63 63.8 16.8 24.2 31 55.8 42.2 94.4 11 38.8 12.2 82.8 12.2 131.2 0 60.6-20 137.4-68.4 191.4zM760.8 148.8c-55.8-26.2-137.8-36.8-246.6-36.8h-4.2c-108.8 0-190.8 10.4-245.6 36.8-55 26.2-82.6 80.2-82.6 161.4 0 48.6 17.2 88 51 118.2 14.8 13 32.8 22 55.2 27.4 22.2 5.2 42.8 5.6 62 5 18.8-0.8 45.2-4.4 78.6-7 33.6-2.6 58.6-6 83.6-6 23.4 0 54.4 4 104.2 8 50 4 87 6 111 2 24.6-4 46-12.4 64.2-29.4 35.4-31.6 53.2-71 53.2-118.2-0.2-81.2-28.4-135.2-84-161.4z" />
<glyph unicode="&#xe921;" glyph-name="python" d="M386.92 461.888c6.965 1.321 14.979 2.078 23.169 2.082h0.003l-6.244 0.030h207.646c9.006 0 17.612 1.234 25.816 3.508 38.74 10.726 66.69 45.074 66.69 87.326v174.448c0 49.664-42.3 86.968-92.578 95.212-31.862 5.248-78.516 7.654-110.178 7.498-31.658-0.172-61.962-2.808-88.554-7.498-78.404-13.646-92.69-42.35-92.69-95.212v-57.282h192v-32h-254.36c-71.256 0-129.076-85.142-129.626-190.484-0.004-0.506-0.014-1.010-0.014-1.516 0-19.046 1.88-37.44 5.37-54.808 15.926-79.332 65.532-137.192 124.27-137.192h30.36v91.87c0 53.654 40.292 103.466 98.92 114.018zM407.312 705.996c-19.184 0-34.768 15.57-34.768 34.806 0 19.328 15.548 35.040 34.768 35.040 19.148 0 34.798-15.71 34.798-35.040 0.002-19.236-15.618-34.806-34.798-34.806zM887.902 514.914c-18.342 73.044-65.836 125.086-121.542 125.086h-30.36v-81.344c0-67.83-44.572-116.948-98.978-125.362-4.989-0.82-10.739-1.289-16.6-1.292h-207.72c-0.026 0-0.057 0-0.089 0-9.245 0-18.205-1.22-26.728-3.508l0.719 0.164c-38.244-10.036-66.604-41.858-66.604-83.13v-174.454c0-49.664 49.954-78.852 98.962-93.102 58.654-17.062 122.534-20.136 192.732 0 46.606 13.32 92.306 40.242 92.306 93.102v52.926h-192v32h254.36c50.48 0 94.214 42.73 115.628 105.098 8.96 26.094 14.012 55.62 14.012 86.902 0 23.536-2.866 46.076-8.098 66.914zM615.734 194.36c19.18 0 34.762-15.57 34.762-34.8 0-19.3-15.582-35.042-34.762-35.042-19.154 0-34.798 15.742-34.798 35.042 0 19.26 15.612 34.8 34.798 34.8z" />
<glyph unicode="&#xe922;" glyph-name="rss" d="M239.8 287.8c-61.6 0-111.8-50.2-111.8-111.6 0-61.6 50.2-111.2 111.8-111.2 61.8 0 111.8 49.8 111.8 111.2s-50 111.6-111.8 111.6zM128 576v-159.8c96 0 188.2-28.4 256-96.2s96-159.8 96-256h160c0 279.8-232 512-512 512zM128 832v-159.8c342 0 607.8-266 607.8-608.2h160.2c0 423.4-344 768-768 768z" />
<glyph unicode="&#xe923;" glyph-name="sass" d="M1023.568 301.784c-3.34 27.198-18.472 48.292-41.59 64.832 5.714-4.080 10.55-7.532-0.11 0.082-14.378 10.262-6.76 4.822-0.094 0.064-57 40.602-131.352 31.578-193.466 9.022-24.894 40.59-25.974 71.566-11.632 115.874 1.858 5.6 0.59 8.708-5.248 11.208-14.172 6.060-34.582 2.854-48.844-0.926-4.924-1.292-8.508-3.8-9.6-8.762-10.308-48.486-42.018-92.896-69.656-133.772-19.462 37.304-17.92 66.174-4.828 105.032 1.596 4.732 0.862 7.248-3.874 9.758-14.52 7.514-36.802 3.824-51.6-0.552-17.018-4.964-42.58-89.188-50.744-105.892-17.062-34.884-32.182-89.33-61.17-117.004-24.6 31.614 45.052 103.034 21.764 131.702-7.876 9.696-22.126 9.446-31.172 1.232 2.17 15.216 3.296 25.218-0.64 38.126-4.162 13.58-14.722 21.374-30.18 20.98-35.99-1.054-67.686-27.63-89.282-52.794-20.554-24.21-74.762-39.254-103.906-53.854-50.064 43.614-158.442 89.894-161.264 164.162-3.056 83.692 96.638 140.49 163.194 174.456 86.56 44.208 219.922 99.216 318.276 50.872 26.098-12.828 36.598-40.342 29.414-66.696-18.736-68.732-94.396-114.586-160.206-135.614-32.378-10.35-67.938-18.054-102.2-16.052-45.91 2.686-81.66 30.448-86.562 32.172-4.098 0.778-3.776-4.522-2.694-7.328 47.632-124.866 288.834-33.362 351.912 30.742 30.378 30.842 48.826 60.73 56.702 107.788 9.232 55.166-31.268 89.684-62.008 103.914-155.836 72.144-371.272-22.336-489.106-118.654-51.136-41.802-115.104-108.22-85.748-177.892 31.86-75.61 129.472-114.38 193.006-160.624-51.408-25.546-115.724-51.966-149.036-99.866-19.048-27.458-25.806-56.718-11.622-87.932 25.144-55.136 116.57-31.244 155.146-6.942 35.34 22.26 59.126 52.14 69.4 90.456 8.91 33.218 7.082 67.732-7.712 99.024l57.17 28.916c-15.394-46.152-22.194-104.006 9.762-145.71 12.804-16.676 46.034-17.35 59.634-0.622 17.632 21.886 29.328 49.31 41.006 74.412-1.364-18.746-3.712-39.992 2.754-56.33 7.42-18.746 24.252-22.582 41.584-10.686 53.040 36.406 86.796 137.304 112.926 196.124 7.104-25.658 14.946-49.096 27.914-72.752 3.204-5.806 2.814-9.548-1.592-14.39-19.37-21.35-65.652-56.958-70.138-85.798-1.048-6.742 3.426-13.198 11.372-14.74 31.146-6.216 65.676 5.062 90.964 22.156 26.376 17.844 34.892 42.174 28.49 71.030-9.152 41.542 21.986 87.96 51.602 122.060 5.438-25.816 13.632-50.662 28.286-73.212-26.15-22.966-65.16-55.528-59.558-93.878 1.976-13.73 14.27-22.602 29.028-19.472 31.566 6.648 58.832 20.226 78.74 44.292 18.046 21.71 11.584 45.402 3.712 69.27 47.744 13.63 96.044 16.354 143.662 0.054 22.99-7.82 41.51-21 52.496-41.636 13.452-25.288 5.878-48.584-20.1-65.208-6.574-4.208-11.124-7.666-8.9-9.486 2.224-1.822 9.8-4.226 26.568 6.304 16.768 10.534 27.020 24.766 29.646 43.45 0.244 2.257 0.383 4.876 0.383 7.527 0 2.812-0.157 5.588-0.461 8.319l0.030-0.336zM225.892 251.266c-2.716-33.346-19.272-60.386-46.35-82.228-15.234-12.316-34.204-22.352-53.040-24.184-18.836-1.834-33.502 2.922-34.756 22.46-3.528 54.986 81.846 108.848 129.25 125.066 4.040-13.72 6.022-27.332 4.864-41.174l0.032 0.060zM432.096 396.172c-7.806-44.618-29.66-124.694-64.628-156.672-4.712-4.286-9.22-4.036-11.618 1.542-20.69 48.118 7.342 147.338 66.164 162.656 6.914 1.778 11.204-1.164 10.082-7.526zM572.718 232.636c16.844 17.924 33.668 35.832 50.538 53.854 2.086-20.042-35.142-59.928-50.538-53.854zM734.146 268.028c-4.696-2.546-15.242-5.030-15.654-1.67-2.964 24.17 23.632 49.748 40.134 61.734 8.906-22.686-1.636-47.668-24.48-60.064z" />
<glyph unicode="&#xe924;" glyph-name="skype" d="M873.8 366.4c5.6 25 8.4 50.8 8.4 77.4 0 199.4-164 361.2-366.4 361.2-21.4 0-42.2-1.8-62.6-5.2-32.6 20.4-71.2 32.2-112.8 32.2-117.2 0-212.4-93.8-212.4-209.4 0-38.8 10.6-75 29.2-106-4.8-23.4-7.4-47.8-7.4-72.6 0-199.6 164-361.2 366.2-361.2 23 0 45.4 2 67 6 30-15.8 64.2-24.8 100.4-24.8 117.4 0 212.4 93.8 212.4 209.4 0.2 33.4-7.8 65-22 93zM703.8 271.4c-17-23.6-42-42.4-74.4-55.6-32.2-13.2-70.6-19.8-114.6-19.8-52.6 0-96.6 9.2-131.2 27.2-24.6 13.2-44.8 30.8-60.4 52.8s-23.4 44-23.4 65.2c0 13.2 5.2 24.6 15.2 34.2 10 9.2 23 14 38.2 14 12.6 0 23.4-3.6 32.2-11 8.4-7 15.6-17.4 21.4-31 6.6-14.6 13.6-27 21.2-36.8 7.2-9.4 17.4-17.2 30.6-23.4 13.4-6.2 31.2-9.4 53.2-9.4 30.2 0 55 6.4 73.6 19 18.4 12.2 27.2 27 27.2 45 0 14.2-4.6 25.4-14.2 34.2-10 9.2-23 16.4-39.2 21.2-16.6 5.2-39.2 10.6-67.2 16.4-38 8-70.2 17.6-96 28.4-26.2 11-47.4 26.4-63 45.4-15.8 19.4-23.6 43.8-23.6 72.4 0 27.4 8.4 51.8 24.8 73 16.4 21 40.2 37.4 71.2 48.6 30.4 11.2 66.6 16.8 107.4 16.8 32.8 0 61.4-3.8 85.4-11 24.2-7.4 44.4-17.4 60.6-29.8 16-12.4 28-25.6 35.6-39.4 7.6-14 11.4-27.8 11.4-41.2 0-12.8-5-24.6-15-34.8s-22.6-15.6-37.6-15.6c-13.6 0-24.2 3.2-31.6 9.6-6.8 6-14 15.2-21.8 28.6-9.2 17-20.2 30.6-32.8 40.2-12.4 9.2-32.8 14-61.2 14-26.2 0-47.6-5.2-63.4-15.4-15.2-9.8-22.6-21.2-22.6-34.6 0-8.2 2.4-15 7.4-21 5.2-6.2 12.4-11.8 21.8-16.4 9.6-4.8 19.6-8.6 29.4-11.2 10.2-2.8 27.2-7 50.6-12.2 29.8-6.2 57-13.4 81-20.8 24.4-7.8 45.4-17.2 62.6-28.2 17.6-11.2 31.4-25.8 41.4-43 9.8-17.2 14.8-38.8 14.8-63.6 0.8-30.2-7.8-57.4-25-81z" />
<glyph unicode="&#xe925;" glyph-name="steam" d="M957.6 543.6c0-39.6-32.2-72-72-72-39.6 0-72 32.2-72 72 0 39.6 32.2 72 72 72 39.6 0 72-32.4 72-72zM885.2 682c-76.2 0-138-61.4-138.8-137.4l-86.4-124c-3.6 0.4-7.2 0.6-10.8 0.6-19.4 0-37.4-5.4-52.8-14.6l-391.6 157.4c-10.2 46.4-51.8 81.4-101.2 81.4-57 0.2-103.6-46.6-103.6-103.6s46.6-103.6 103.6-103.6c19.4 0 37.4 5.4 52.8 14.6l391.6-157.2c10.2-46.6 51.6-81.6 101.2-81.6 53.6 0 98 41.2 103 93.4l133 97.2c76.6 0 138.8 62 138.8 138.6s-62.2 138.8-138.8 138.8zM885.2 636.2c51.4 0 93-41.8 93-93 0-51.4-41.8-92.8-93-92.8-51.4 0-93 41.6-93 92.8 0 51.4 41.6 93 93 93zM103.6 618.2c29.2 0 54.6-16.4 67.4-40.4l-37.8 15.2v-0.2c-30.6 11-64.4-4-76.6-34.2-12.2-30.4 1.8-64.6 31.4-77.8v-0.2l32.2-12.8c-5.2-1.2-10.8-1.8-16.4-1.8-42.2 0-76.2 34-76.2 76.2-0.2 41.8 33.8 76 76 76zM649.2 393.8c42.2 0 76.2-34 76.2-76.2s-34-76.2-76.2-76.2c-29.4 0-54.8 16.4-67.4 40.6 12.6-5 25-10 37.6-15.2 31-12.4 66.4 2.6 78.8 33.6s-2.6 66.2-33.8 78.8l-31.8 12.8c5.6 1 11 1.8 16.6 1.8z" />
<glyph unicode="&#xe926;" glyph-name="tux" d="M852.6 168c-13.4 8-26.4 22-24 37.6 4.6 30.6 5 43-0.4 51.6-3.8 6.4-11 10-17.2 11.6 4 5 6.2 10.8 7.6 21.8 2.6 20-9.4 82-25.4 131.4s-59.8 100-89.4 136c-52 63.6-45.6 78.4-52.6 199.4-4.4 77-38.6 138.6-139.2 138.6s-134-64-134-118c0-57.4 4-102 4-102 2.6-66.8 2-78.8-16-110.6-9.8-17.4-54-60-71.4-89.4s-15.2-59-49.2-105.6c-24.8-34-27.6-56.8-19.4-88-14-16.4-7.2-39.8-10-49.8-5.2-17.4-27.4-20.6-44.6-22s-30.6 0-37.4-10.6 1.4-32 8.6-60-14.6-30-14.6-62 60-32 119.4-45.4 81.4-32.6 112-32.6 53.6 20.4 76 38.6c14.4 11.8 58 7.4 84.6 7.4s68.6 1.2 91.4-4.8 22.6-41.2 78.6-41.2 69.4 41.4 122 68.6 84 40 84 59.4-30 32-43.4 40zM399.6 57c-2.6-26-25.2-34.2-48.2-32.2-26 2.2-58 15.2-88.2 24.2s-71 15-98 19.8c-30.6 5.4 0 27.2-0.4 68.4-0.2 16-14.2 38.8-8.4 49.4s34.6 4.8 44.6 7.6 25.4 11.4 30.6 23.8c2.8 6.8 3.6 35.4 5.8 45.6 2.2 9.8 15.8 14.4 44.4-0.2s57.8-76.2 84.6-119.6 35.8-60.8 33.2-86.8zM636.6 188.6c4-20.6 6.4-49 1.4-72.6s-14-31-21.4-46c-4.4 13.6 10.6 27.6 8.8 61.6-1 19-1.6 15.6-23-3.6-24.4-21.6-55.2-40.2-106-45-42-4-65 16.6-65 16.6 10-32-8.6-49.4-8.6-49.4 0.6 7.4 1.6 28.6-5 43.2-8 18-18.6 37.4-18.6 37.4s17.2 5.4 23.2 20 4 34.6-17.4 55.4-105 75.2-111.8 84.2c-9.8 13-13.4 20.4-14 46.4s10.8 49.6 8.6 40.6c-1.6-6.4 0.2-13.6 0.2-39.6s15.2-46.6 27.8-50c19-5.2 4 52.2 16 106.2s23.4 65.6 38.4 87.6 38.4 41 34 86.2-0.2 40.2 10.2 23.6c8-13 26.6-48 49.4-44 38.8 6.6 87.8 49.2 95.2 56.4s1.4 14.2-4.6 11.6c-31-13.4-88.6-43-103-36.4s-36.2 41.2-33.6 39c30.8-27.2 39.8-22.2 52.8-18 16.8 5.6 25.6 8.6 57 22.6s41.4 10.6 44.6 17.4-0.8 13.4-9.4 11.4c-12.8-3-6.8-10.2-45.4-24.6-50.6-19-66.6-20.6-88-6-17.2 11.8-30 25.4-30 33.4s16.6 16.6 24.6 22.6 24.6 21.8 24.6 21.8 2 14.4-1.2 25.4c-3.8 13-15.6 18.6-23.8 16.2-8.2-2.2-16-11-13.6-29.6 2-16.6 14-22 14-22s-5.4-7-10.4-9.4c0 0-1.6 0.6-7 12.6s-13.2 39-0.6 62.2 39.2 10.4 47.6-7.6c7.8-16.6 4.8-45.4 4.8-45.4 12 4.4 26 4 42-7-14.2 59.6 19 82.2 44 82.2s44.6-19.2 44.6-50c0-24-7-36.4-13.8-44-8.2 1-16.4 3-12.6 6.8 2.6 2.8 8.8 11.4 8.8 26.4s-11.8 27.4-27.4 27.4c-18.4 0-25.2-16.6-27.4-26s-0.8-17.2-0.4-20.8c1.2-10 21.8-19.2 47.8-25.8s22.6-18 16.6-50.6 12.6-36.6 28.6-67.6 11.4-43.6 31.8-70.4 38-95.6 32.8-153.6c-1.8-21-7.8-20.4 14.6-13.4 11.2 3.4 24 5.4 24 5.4 6.2 12.6 6.8 32.6 7 44.6 0.4 27 1.4 83-53.4 143 0 0 59-43.4 68-124 5-44.6-4-64.8-4-64.8 10.6-2.6 19.6-14.6 25.2-23.6 7.4-12.2-7.8 11.6-40 11.6-17 0-30.6-7.8-37-15.8s-6.2-15.2-6.4-23.4c-14.2 2.4-24.8 0-33.6-9.8-11.2-14-5.6-48.4-1.6-69.2zM816.8 94.2c-48.2-20.8-65.4-47-95.4-63s-55.4-4.6-67.4 16 20.8 56.4 9.4 119.2c-8.8 48.4-12.6 62-9.8 73.6 2.8 11 18.8 8.8 23 7.8 2.6-10.8 13.4-39 54-39 0 0 46.4-5.2 65.4 42.4 0 0 11.4 0.4 14.4-7 4.6-11.6-5.8-33-5.6-42.6 0.6-31.4 23.4-42.2 56.8-64 16.4-11.2 4.2-22.2-44.8-43.4z" />
<glyph unicode="&#xe927;" glyph-name="twitter" d="M984 741c-34.8-15.4-72-25.8-111.2-30.6 40 24 70.8 62 85.2 107.2-37.4-22.2-78.8-38.4-123-47-35.4 37.8-85.8 61.4-141.4 61.4-107 0-193.6-86.8-193.6-193.8 0-15.2 1.6-30 5-44.2-161 8-303.8 85.2-399.2 202.6-16.6-28.6-26.2-62-26.2-97.4 0-67.2 34.4-126.6 86.4-161.4-32 0.8-62 9.6-88 24.2v-2.4c0-94 66.8-172.2 155.4-190-16.2-4.4-33.4-6.8-51-6.8-12.4 0-24.6 1.2-36.4 3.6 24.6-77 96.2-133 181-134.6-66.2-52-149.8-83-240.6-83-15.6 0-31 1-46.2 2.8 85.4-55.6 187.2-87.6 296.4-87.6 356.6 0 551.4 295.4 551.4 551.6 0 8.4-0.2 16.8-0.6 25 37.8 27.4 70.6 61.4 96.6 100.4z" />
<glyph unicode="&#xe928;" glyph-name="usd" d="M822.774 353.488c-6.238 19.154-15.782 37.122-28.602 53.904-12.844 16.764-28.792 31.652-47.86 44.662-19.078 12.996-41.442 23.26-67.106 30.8-10.286 2.726-28.378 7.012-52.208 12.836-17.032 4.148-33 8.4-51 12.734v211.446c18-4.792 30.504-12.404 43.852-20.86 28.558-18.080 46.464-49.010 51.71-91.010h138.348c-1.308 36-9.3 65.52-23.992 92.040-16.14 29.086-37.954 54.048-65.46 73.912-27.5 19.844-60.45 34.98-96.754 44.91-15.768 4.306-29.702 7.928-47.702 10.366v66.772h-128v-66.334c-14-2.088-30.296-4.89-44.852-8.5-34.484-8.566-64.776-21.736-91.902-39.528-27.142-17.81-48.704-40.224-65.208-67.254-16.502-27.046-24.624-59.040-24.624-96 0-19.17 2.814-37.986 8.314-56.47 5.504-18.482 14.884-35.934 28.084-52.362 13.206-16.428 30.99-31.316 53.374-44.664 22.366-13.344 49.41-24.128 83.152-32.342 18.574-4.69 37.66-9.068 53.66-13.152v-239.172c-22 5.838-43.778 14.798-61.356 26.958-18.34 12.654-32.132 27.906-42.396 47.768-9.558 18.458-14.146 41.052-14.814 65.052h-137.432c1.39-42 10.5-78.988 27.344-110.742 17.598-33.208 41.066-59.92 70.408-81.124 29.324-21.226 62.786-36.712 102.396-46.982 17.77-4.608 37.852-7.92 55.852-10.46v-70.692h128v69.080c20 2.138 37.914 5.38 57.054 9.758 37.402 8.546 71.29 22.072 100.632 40.552 29.324 18.48 53.242 42.256 71.222 71.362 17.96 29.082 27.090 64.17 27.090 105.238 0.002 19.156-3.002 38.328-9.224 57.498zM448 540.602c-24 7.486-47.824 18.176-64.102 32.096-17.242 14.71-25.346 35.068-25.346 61.090 0 18.482 4.828 33.88 14.008 46.204 9.16 12.322 19.824 22.076 33.76 29.262 12.36 6.378 27.68 11.13 41.68 14.276v-182.928zM685.804 241.058c-5.878-13.346-15.398-25.152-28.606-35.422-13.204-10.266-31.488-18.656-52.754-25.154-9-2.756-16.446-4.888-28.446-6.472v214.22c20-5.248 36.36-10.664 52.652-16.262 16.124-5.488 31.496-14.886 45.074-28.232 13.57-13.352 20.618-34.060 20.618-62.12 0.002-13.7-2.674-27.21-8.538-40.558z" />
<glyph unicode="&#xe929;" glyph-name="windows" d="M960 430h-496v-358l496-72v430zM432 430h-368v-300l368-53.4v353.4zM960 896l-496-70.8v-363.2h496v434zM432 820.6l-368-52.6v-306h368v358.6z" />
<glyph unicode="&#xe92a;" glyph-name="yen" d="M896 896h-160l-224-442.256-224 442.256h-160l224.736-416h-96.736v-96h147.128l28.872-62v-34h-176v-96h176v-192h160v192h176v96h-176v34l29.782 62h146.218v96h-96.578l224.578 416z" />
<glyph unicode="&#xe92b;" glyph-name="add" d="M737 480h-193v193c0 17.6-14.4 32-32 32s-32-14.4-32-32v-193h-193c-17.6 0-32-14.4-32-32 0-8.8 3.6-16.8 9.4-22.6s13.8-9.4 22.6-9.4h193v-193c0-8.8 3.6-16.8 9.4-22.6s13.8-9.4 22.6-9.4c17.6 0 32 14.4 32 32v193h193c17.6 0 32 14.4 32 32s-14.4 32-32 32z" />
<glyph unicode="&#xe92c;" glyph-name="add-circle" d="M512 864c-229.8 0-416-186.2-416-416s186.2-416 416-416 416 186.2 416 416-186.2 416-416 416zM693 416h-149v-149c0-17.6-14.4-32-32-32-8.8 0-16.8 3.6-22.6 9.4s-9.4 13.8-9.4 22.6v149h-149c-8.8 0-16.8 3.6-22.6 9.4s-9.4 13.8-9.4 22.6c0 17.6 14.4 32 32 32h149v149c0 17.6 14.4 32 32 32s32-14.4 32-32v-149h149c17.6 0 32-14.4 32-32s-14.4-32-32-32z" />
<glyph unicode="&#xe92d;" glyph-name="add-circle-outline" d="M693 480h-149v149c0 17.6-14.4 32-32 32s-32-14.4-32-32v-149h-149c-17.6 0-32-12-32-32s15-32 32-32h149v-149c0-19 14-32 32-32s32 14.4 32 32v149h149c17.6 0 32 14.4 32 32s-14.4 32-32 32zM512 808c96.2 0 186.6-37.4 254.6-105.4s105.4-158.4 105.4-254.6-37.4-186.6-105.4-254.6-158.4-105.4-254.6-105.4c-96.2 0-186.6 37.4-254.6 105.4s-105.4 158.4-105.4 254.6 37.4 186.6 105.4 254.6 158.4 105.4 254.6 105.4zM512 864c-229.8 0-416-186.2-416-416s186.2-416 416-416 416 186.2 416 416-186.2 416-416 416z" />
<glyph unicode="&#xe92e;" glyph-name="airplane" d="M815.4 512c-6.8 0-29.6-0.2-36-0.6l-129.8-3.4c-1.4 0-2.8 0.6-3.4 1.8l-194.6 291.4c-5.8 9.2-16.2 14.8-27 14.8h-47.4c-11.2 0-15-11.2-11-21.6l100.2-285.6c1-2.6-0.8-5.4-3.6-5.4l-244.8-3.6c-5.2-0.2-10 2.2-13.2 6.2l-74 90c-6 7.8-15.4 12.2-25.2 12.2h-33.6c-5.6 0-9.4-5.4-7.6-10.6l39.8-137.4c3-7.6 3-16.2 0-23.8l-39.8-137.4c-1.8-5.2 2-10.6 7.6-10.6h33.4c9.8 0 19.2 4.6 25.2 12.2l75.4 91.4c3.2 4 8.2 6.4 13.2 6.2l243.4-5.4c2.8-0.2 4.6-2.8 3.6-5.4l-100.2-285.8c-4-10.4-0.2-21.6 11-21.6h47.4c11 0 21.2 5.6 27 14.8l194.8 291.2c0.8 1.2 2 1.8 3.4 1.8l129.8-3.4c6.6-0.4 29.2-0.6 36-0.6 88.6 0 144.6 28.6 144.6 64s-55.8 64.2-144.6 64.2z" />
<glyph unicode="&#xe92f;" glyph-name="alarm" d="M762.4 831.8c-2.6 0.2-5.2 0.2-7.8 0.2h-0.4c-32.4 0-64-10.8-89.2-30.2-3.2-2.6-5.2-6.4-5.4-10.4s1.6-8 4.6-10.8l179.6-161c2.6-2.2 5.8-3.6 9.2-3.6h0.8c3.8 0.2 7.2 2 9.6 4.8 18.4 21.2 32.6 37.6 32.6 73.2 0.2 72.8-58.2 133.6-133.6 137.8zM128 694c0-35.6 14.2-52 32.6-73.2 2.4-2.8 5.8-4.6 9.6-4.8h0.8c3.4 0 6.6 1.2 9.2 3.6l179.8 161c3 2.8 4.8 6.6 4.6 10.8-0.2 4-2 7.8-5.4 10.4-25.2 19.4-56.8 30.2-89.2 30.2h-0.4c-2.6 0-5.2 0-7.8-0.2-75.4-4.2-134-65-133.8-137.8zM780 188c52.4 61.4 84 141 84 228 0 194.4-157.6 352-352 352s-352-157.6-352-352c0-87 31.6-166.6 84-228l-69.4-71c-12.4-12.6-12-31 0.6-43.2 6.2-6 14.8-9.6 22.8-9.6 8.4 0 16.2 3.8 22.4 10.2l69.2 69c60.6-49.4 138-79.2 222.4-79.2s161.8 29.6 222.4 79.2l67.2-69c6.2-6.4 14.6-10.2 23-10.2 8 0 16.2 3.6 22.4 9.6 12.6 12.4 15 30.6 2.6 43.2l-69.6 71zM540 412c0-15.4-12.6-28-28-28h-164c-15.4 0-28 12.6-28 28s12.6 28 28 28h136v204c0 15.4 12.6 28 28 28s28-12.6 28-28v-232z" />
<glyph unicode="&#xe930;" glyph-name="albums" d="M921.8 638h-819.6c-38.6 0-70.2-31.6-70.2-70.2v-463.8c0-38.6 31.6-70.2 70.2-70.2h819.8c38.6 0 70.2 31.6 70.2 70.2v463.8c-0.2 38.6-31.8 70.2-70.4 70.2zM868 694h-712c-15.4 0-28 12.6-28 28s12.6 28 28 28h712c15.4 0 28-12.6 28-28s-12.6-28-28-28zM806.4 806h-588.8c-14 0-25.6 11.6-25.6 25.6v4.8c0 14 11.6 25.6 25.6 25.6h588.8c14 0 25.6-11.6 25.6-25.6v-4.8c0-14-11.6-25.6-25.6-25.6z" />
<glyph unicode="&#xe931;" glyph-name="alert" d="M512 864c-229.8 0-416-186.2-416-416s186.2-416 416-416 416 186.2 416 416-186.2 416-416 416zM546.4 644.8l-6.2-230.2c-0.4-16.4-11.8-29.6-28.2-29.6s-27.8 13.2-28.2 29.6l-6.2 230.2c-0.4 19.2 15 35.2 34.4 35.2 19.2 0 34.8-15.8 34.4-35.2zM512 252c-21.4 0-38.2 16.2-38.2 36.8s16.8 36.8 38.2 36.8c21.4 0 38.2-16.2 38.2-36.8s-16.8-36.8-38.2-36.8z" />
<glyph unicode="&#xe932;" glyph-name="american-football" d="M757.2 693.2c-81 81-189.4 124.8-294.4 147.6l-343.6-343.6c22.8-105.2 66.6-213.4 147.6-294.4s189.4-124.8 294.4-147.6l343.6 343.6c-22.8 105-66.6 213.4-147.6 294.4zM688.2 384l-38.4-38.4 29.6-29.6c9.8-9.8 9.8-25.4 0-35.2s-25.4-9.8-35.2 0l-29.6 29.6-38.6-38.8c-4-4-9-6.8-14.6-7.8-8.4-1.4-16.8 1.4-22.6 7.2-3 3-5.2 6.6-6.4 10.6-2.8 9.8-0.2 19.4 6.4 26.2l39 39-31.2 31.2-38.6-38.6c-4.2-4.2-9.4-7-15.2-7.8-11-1.4-21.4 3.8-26.8 14-0.6 1.2-1.2 2.4-1.6 3.8-3 9.8-0.4 19.6 6.4 26.4l39 39-31 31.2-38.6-38.6c-4.2-4.2-9.4-7-15.2-7.8-11-1.4-21.4 3.8-26.8 14-0.6 1.2-1.2 2.4-1.6 3.8-3 9.8-0.4 19.6 6.4 26.4l39 39-31 31.2-38.6-38.6c-4.2-4.2-9.4-7-15.2-7.8-11-1.4-21.4 3.8-26.8 14-0.6 1.2-1.2 2.4-1.6 3.8-3 9.8-0.4 19.6 6.4 26.4l39 39-29.6 29.6c-9.8 9.8-9.8 25.4 0 35.2s25.4 9.8 35.2 0l29.6-29.6 38.6 38.6c4.2 4.2 9.4 7 15.2 7.8 11 1.4 21.4-3.8 26.8-14 0.6-1.2 1.2-2.4 1.6-3.8 3-9.8 0.4-19.6-6.4-26.4l-39-39 31.2-31.2 38.6 38.6c4 4 9 6.8 14.6 7.8 8.4 1.4 16.8-1.4 22.6-7.2 3-2.8 5.2-6.4 6.4-10.4 3-9.8 0.4-19.6-6.4-26.4l-39.2-39.2 31.2-31.2 38.6 38.6c4.2 4.2 9.4 7 15.2 7.8 11 1.4 21.4-3.8 26.8-14 0.6-1.2 1.2-2.4 1.6-3.8 3-9.8 0.4-19.6-6.4-26.4l-39-39 31.2-31.2 38.6 38.6c4.4 4.4 10 7.2 16 8 8.8 1 17.2-2.4 22.8-9.2 8.2-10 7-26.2-2.4-35.4zM790.2 32c55.2 0 97.6 3.6 117.6 5.8 7.4 0.8 13.4 6.8 14.2 14.2 4 37.8 13.6 155.2-6.4 287.4l-295-295.2c62-9.4 120.8-12.2 169.6-12.2zM233.6 864c-55 0-97.6-3.6-117.6-5.8-7.4-0.8-13.4-6.8-14.2-14.2-4-37.8-13.6-155.2 6.4-287.2l295 295c-62 9.4-120.8 12.2-169.6 12.2z" />
<glyph unicode="&#xe933;" glyph-name="analytics" d="M512 864c-229.8 0-416-186.2-416-416s186.2-416 416-416 416 186.2 416 416-186.2 416-416 416zM152 448c0 96.2 37.4 186.6 105.4 254.6s158.4 105.4 254.6 105.4c96.2 0 186.6-37.4 254.6-105.4 64.4-64.4 101.4-149 105.2-239.4-17.6 20.6-48.4 48-87.6 48-55 0-83.4-51.4-102-85.4-2.8-5-5.4-9.8-7.8-14-22.8-38.4-54.6-60-85-57.8-26.8 1.8-49.6 22.4-64.4 57.6-18.4 44.2-58.2 91.6-105.8 98.4-22.6 3.2-56.2-1.6-89.4-42.8-6.4-8-13.8-18.8-22.2-31.2-20.8-31-52.4-77.6-76.2-81.6-34.6-5.6-61.8 15-72.8 24.6-4.4 22.4-6.6 45.6-6.6 69z" />
<glyph unicode="&#xe934;" glyph-name="aperture" d="M500.4 217.2c-3.6 0-5.4-4.4-2.8-6.8l154.4-154.4c84.8 30.4 157 87.4 206.2 161.2h-357.8zM334 290.8v-218.8c54-25.6 114.2-40 178-40 28.2 0 55.8 2.8 82.4 8.2l-253.6 253.4c-2.4 2.6-6.8 0.8-6.8-2.8zM512 864c-27.8 0-54.8-2.8-81-8l253.6-253.6c2.6-2.6 6.8-0.8 6.8 2.8v218.2c-54.2 26-115 40.6-179.4 40.6zM136.2 626.8c-25.8-54.2-40.2-114.8-40.2-178.8 0-28.2 2.8-55.8 8.2-82.4l254.2 254.4c2.6 2.6 0.8 6.8-2.8 6.8h-219.4zM373.4 840.2c-85.4-30.2-158-87.4-207.4-161.6h359.4c3.6 0 5.4 4.4 2.8 6.8l-154.8 154.8zM334 518.8v-141.4c0-2.2 0.8-4.2 2.4-5.6l100-100c1.6-1.6 3.6-2.4 5.6-2.4h141.4c2.2 0 4.2 0.8 5.6 2.4l100 100c1.6 1.6 2.4 3.6 2.4 5.6v141.4c0 2.2-0.8 4.2-2.4 5.6l-100 100c-1.6 1.6-3.6 2.4-5.6 2.4h-141.4c-2.2 0-4.2-0.8-5.6-2.4l-100-100c-1.4-1.6-2.4-3.6-2.4-5.6zM920 529l-252.8-253c-2.6-2.6-0.8-6.8 2.8-6.8h217.6c26 54.2 40.4 114.8 40.4 178.8 0 27.8-2.8 54.8-8 81zM743.6 793.6v-358c0-3.6 4.4-5.4 6.8-2.8l153.8 153.8c-30 85.2-87 157.6-160.6 207zM120.2 308.2c30.4-85.2 87.8-157.6 162-206.8v359c0 3.6-4.4 5.4-6.8 2.8l-155.2-155z" />
<glyph unicode="&#xe935;" glyph-name="apps" d="M869.6 684.8l-298.8 136.2c-32.4 14.8-85.4 14.8-117.8 0l-298.6-136.2c-35.2-16-35.2-42.2 0-58.2l296-135c33.8-15.4 89.4-15.4 123.2 0l296 135c35.2 16 35.2 42.2 0 58.2zM450.4 209.6l-199.6 91c-8.4 3.8-18.2 3.8-26.6 0l-69.8-31.8c-35.2-16-35.2-42.2 0-58.2l296-135c33.8-15.4 89.4-15.4 123.2 0l296 135c35.2 16 35.2 42.2 0 58.2l-69.8 31.8c-8.4 3.8-18.2 3.8-26.6 0l-199.6-91c-33.8-15.4-89.4-15.4-123.2 0zM869.6 476.8l-63.4 28.8c-8.4 3.8-18 3.8-26.4 0l-216-97.8c-30.6-10.4-73.2-10.4-103.8 0l-216 97.8c-8.4 3.8-18 3.8-26.4 0l-63.4-28.8c-35.2-16-35.2-42.2 0-58.2l296-135c33.8-15.4 89.4-15.4 123.2 0l296 135c35.4 16 35.4 42.2 0.2 58.2z" />
<glyph unicode="&#xe936;" glyph-name="appstore" d="M512 864c-229.8 0-416-186.2-416-416s186.2-416 416-416 416 186.2 416 416-186.2 416-416 416zM354.2 270.2c-5.4-9.2-15-14.2-25-14.2-5 0-10 1.2-14.6 4-13.8 8-18.4 25.6-10.4 39.4l28.4 47.2c3 5 8.2 8 14 8h4.2c20.6 0 35-12.4 39.2-24.4l-35.8-60zM594.6 363l-309.6-0.2c-16.4 0-29.6 13.6-28.8 30 0.6 15.6 14.2 27.4 29.8 27.4h89.6l106.2 180.8-34.4 58.6c-7.8 13.4-4.4 31 8.8 39.4 14 9 32.4 4.4 40.6-9.6l18.4-31.4h0.2l18.4 31.4c8.2 14 26.8 18.6 40.6 9.6 13.2-8.4 16.6-26 8.8-39.4l-34.4-58.6-106-181h107c13.4 0 30.2-7.2 37-18.8l0.6-1.2c6-10.2 9.4-17.2 9.4-27.4-0.2-5.6-2.2-9.6-2.2-9.6zM739 362.8h-50.4v-0.2l36.8-62.6c8-13.6 4.2-31.6-9.6-40-4.6-2.8-9.8-4.2-15-4.2-10 0-19.6 5.2-25 14.2l-88.2 150.2-43.6 74.6c-12.8 21.8-13.4 49-1.2 70.6 8.6 15.2 15.2 19.2 15.2 19.2l97-164.2h83.4c15.6 0 29-12 29.8-27.4 0.6-16.6-12.6-30.2-29.2-30.2z" />
<glyph unicode="&#xe937;" glyph-name="archive" d="M920 720h-816c-4.4 0-8 3.6-8 8v40c0 35.4 28.6 64 64 64h704c35.4 0 64-28.6 64-64v-40c0-4.4-3.6-8-8-8zM880 668h-736c-8.8 0-16-7.2-16-16v-524c0-35.2 28.8-64 64-64h640c35.2 0 64 28.8 64 64v524c0 8.8-7.2 16-16 16zM612 384h-199.2c-14.2 0-26.8 10.4-28.6 24.6-2 17 11.2 31.4 27.8 31.4h199.2c14.2 0 26.8-10.4 28.6-24.6 2-16.8-11.2-31.4-27.8-31.4z" />
<glyph unicode="&#xe938;" glyph-name="arrow-back" d="M435.8 448l254.2 254c18.8 18.8 18.8 49.2 0 67.8-18.8 18.8-49.2 18.6-68 0l-288-287.8c-18.2-18.2-18.6-47.4-1.4-66.2l289.2-289.8c9.4-9.4 21.8-14 34-14s24.6 4.6 34 14c18.8 18.8 18.8 49.2 0 67.8l-254 254.2z" />
<glyph unicode="&#xe939;" glyph-name="arrow-down" d="M512 371.8l254 254.2c18.8 18.8 49.2 18.8 67.8 0s18.6-49.2 0-68l-287.8-288c-18.2-18.2-47.4-18.6-66.2-1.4l-289.8 289.2c-9.4 9.4-14 21.8-14 34s4.6 24.6 14 34c18.8 18.8 49.2 18.8 67.8 0l254.2-254z" />
<glyph unicode="&#xe93a;" glyph-name="arrow-dropdown" d="M295.2 538.6c-15-15-15-39.6 0-54.6l191.4-190.8c14.6-14.6 38.2-15 53.2-1.2l188.6 188c7.6 7.6 11.4 17.4 11.4 27.4 0 9.8-3.8 19.8-11.2 27.2-15 15-39.4 15.2-54.6 0l-162-159.6-162.2 163.8c-15 15-39.4 15-54.6-0.2zM96 448c0-229.8 186.2-416 416-416s416 186.2 416 416-186.2 416-416 416-416-186.2-416-416zM760.8 696.8c66.6-66.4 103.2-154.8 103.2-248.8s-36.6-182.4-103.2-248.8c-66.4-66.6-154.8-103.2-248.8-103.2s-182.4 36.6-248.8 103.2c-66.6 66.4-103.2 154.8-103.2 248.8s36.6 182.4 103.2 248.8c66.4 66.6 154.8 103.2 248.8 103.2s182.4-36.6 248.8-103.2z" />
<glyph unicode="&#xe93b;" glyph-name="arrow-dropdown-circle" d="M96 448c0-229.8 186.2-416 416-416s416 186.2 416 416-186.2 416-416 416-416-186.2-416-416zM674.2 534.8c15 15 39.6 15 54.6 0 7.6-7.6 11.2-17.4 11.2-27.2s-3.8-19.8-11.4-27.4l-188.6-188c-15.2-13.8-38.6-13.4-53.2 1.2l-191.4 190.8c-15 15-15.2 39.4 0 54.6 15 15 39.4 15.2 54.6 0l162.2-163.8 162 159.8z" />
<glyph unicode="&#xe93c;" glyph-name="arrow-dropleft" d="M602.6 664.8c-15 15-39.6 15-54.6 0l-190.8-191.4c-14.6-14.6-15-38.2-1.2-53.2l188-188.6c7.6-7.6 17.4-11.4 27.4-11.4 9.8 0 19.8 3.8 27.2 11.2 15 15 15.2 39.4 0 54.6l-159.6 162 163.8 162.2c15 15 15 39.4-0.2 54.6zM512 864c-229.8 0-416-186.2-416-416s186.2-416 416-416 416 186.2 416 416-186.2 416-416 416zM760.8 199.2c-66.4-66.6-154.8-103.2-248.8-103.2s-182.4 36.6-248.8 103.2c-66.6 66.4-103.2 154.8-103.2 248.8s36.6 182.4 103.2 248.8c66.4 66.6 154.8 103.2 248.8 103.2s182.4-36.6 248.8-103.2c66.6-66.4 103.2-154.8 103.2-248.8s-36.6-182.4-103.2-248.8z" />
<glyph unicode="&#xe93d;" glyph-name="arrow-dropleft-circle" d="M512 864c-229.8 0-416-186.2-416-416s186.2-416 416-416 416 186.2 416 416-186.2 416-416 416zM598.8 285.8c15-15 15-39.6 0-54.6-7.6-7.6-17.4-11.2-27.2-11.2s-19.8 3.8-27.4 11.4l-188 188.6c-13.8 15.2-13.4 38.6 1.2 53.2l190.8 191.4c15 15 39.4 15.2 54.6 0 15-15 15.2-39.4 0-54.6l-163.8-162 159.8-162.2z" />
<glyph unicode="&#xe93e;" glyph-name="arrow-dropright" d="M421.4 664.8c15 15 39.6 15 54.6 0l190.8-191.4c14.6-14.6 15-38.2 1.2-53.2l-188-188.6c-7.6-7.6-17.4-11.4-27.4-11.4-9.8 0-19.8 3.8-27.2 11.2-15 15-15.2 39.4 0 54.6l159.8 162.2-163.8 162.2c-15.2 14.8-15.2 39.2 0 54.4zM96 448c0-229.8 186.2-416 416-416s416 186.2 416 416-186.2 416-416 416-416-186.2-416-416zM160 448c0 94 36.6 182.4 103.2 248.8 66.4 66.6 154.8 103.2 248.8 103.2s182.4-36.6 248.8-103.2c66.6-66.4 103.2-154.8 103.2-248.8s-36.6-182.4-103.2-248.8c-66.4-66.6-154.8-103.2-248.8-103.2s-182.4 36.6-248.8 103.2c-66.6 66.4-103.2 154.8-103.2 248.8z" />
<glyph unicode="&#xe93f;" glyph-name="arrow-dropright-circle" d="M96 448c0-229.8 186.2-416 416-416s416 186.2 416 416-186.2 416-416 416-416-186.2-416-416zM585 448l-163.8 162.2c-15 15-15 39.6 0 54.6s39.6 15 54.6 0l190.8-191.4c14.6-14.6 15-38.2 1.2-53.2l-188-188.6c-7.6-7.6-17.4-11.4-27.4-11.4-9.8 0-19.8 3.8-27.2 11.2-15 15-15.2 39.4 0 54.6l159.8 162z" />
<glyph unicode="&#xe940;" glyph-name="arrow-dropup" d="M295.2 357.4c-15 15-15 39.6 0 54.6l191.4 190.8c14.6 14.6 38.2 15 53.2 1.2l188.6-188c7.6-7.6 11.4-17.4 11.4-27.4 0-9.8-3.8-19.8-11.2-27.2-15-15-39.4-15.2-54.6 0l-162 159.6-162.2-163.8c-15-15-39.4-15-54.6 0.2zM512 32c229.8 0 416 186.2 416 416s-186.2 416-416 416-416-186.2-416-416 186.2-416 416-416zM512 96c-94 0-182.4 36.6-248.8 103.2-66.6 66.4-103.2 154.8-103.2 248.8s36.6 182.4 103.2 248.8c66.4 66.6 154.8 103.2 248.8 103.2s182.4-36.6 248.8-103.2c66.6-66.4 103.2-154.8 103.2-248.8s-36.6-182.4-103.2-248.8c-66.4-66.6-154.8-103.2-248.8-103.2z" />
<glyph unicode="&#xe941;" glyph-name="arrow-dropup-circle" d="M512 32c229.8 0 416 186.2 416 416s-186.2 416-416 416-416-186.2-416-416 186.2-416 416-416zM512 521l-162.2-163.8c-15-15-39.6-15-54.6 0s-15 39.6 0 54.6l191.4 190.8c14.6 14.6 38.2 15 53.2 1.2l188.6-188c7.6-7.6 11.4-17.4 11.4-27.4 0-9.8-3.8-19.8-11.2-27.2-15-15-39.4-15.2-54.6 0l-162 159.8z" />
<glyph unicode="&#xe942;" glyph-name="arrow-forward" d="M588.2 448l-254.2 254c-18.8 18.8-18.8 49.2 0 67.8s49.2 18.6 68 0l288-287.8c18.2-18.2 18.6-47.4 1.4-66.2l-289.2-289.8c-9.4-9.4-21.8-14-34-14s-24.6 4.6-34 14c-18.8 18.8-18.8 49.2 0 67.8l254 254.2z" />
<glyph unicode="&#xe943;" glyph-name="arrow-round-back" d="M432.8 632.6c10.2-10 10.2-26.6 0.2-36.8l-121.4-121.8h462.6c14.2 0 25.8-11.6 25.8-26s-11.6-26-25.8-26h-462.6l121.6-121.8c10-10.2 9.8-26.6-0.2-36.8-10.2-10-26.4-10-36.6 0.2l-164.8 166c-2.2 2.4-4 5-5.4 8.2s-2 6.6-2 10c0 6.8 2.6 13.2 7.4 18.2l164.8 166c9.8 10.4 26.2 10.6 36.4 0.6z" />
<glyph unicode="&#xe944;" glyph-name="arrow-round-down" d="M696.6 368.8c-10 10.2-26.6 10.2-36.8 0.2l-121.8-121.4v462.6c0 14.2-11.6 25.8-26 25.8s-26-11.6-26-25.8v-462.6l-121.8 121.6c-10.2 10-26.6 9.8-36.8-0.2-10-10.2-10-26.4 0.2-36.6l166-164.8c2.4-2.2 5-4 8.2-5.4s6.6-2 10-2c6.8 0 13.2 2.6 18.2 7.4l166 164.8c10.4 9.8 10.6 26.2 0.6 36.4z" />
<glyph unicode="&#xe945;" glyph-name="arrow-round-forward" d="M591.2 632.6c-10.2-10-10.2-26.6-0.2-36.8l121.6-121.8h-462.8c-14.2 0-25.8-11.6-25.8-26s11.6-26 25.8-26h462.6l-121.6-121.8c-10-10.2-9.8-26.6 0.2-36.8 10.2-10 26.4-10 36.6 0.2l164.8 166c2.2 2.4 4 5 5.4 8.2s2 6.6 2 10c0 6.8-2.6 13.2-7.4 18.2l-164.8 166c-9.8 10.4-26.2 10.6-36.4 0.6z" />
<glyph unicode="&#xe946;" glyph-name="arrow-round-up" d="M696.6 527.2c-10-10.2-26.6-10.2-36.8-0.2l-121.8 121.4v-462.6c0-14.2-11.6-25.8-26-25.8s-26 11.6-26 25.8v462.6l-121.8-121.6c-10.2-10-26.6-9.8-36.8 0.2-10 10.2-10 26.4 0.2 36.6l166 164.8c2.4 2.2 5 4 8.2 5.4s6.6 2 10 2c6.8 0 13.2-2.6 18.2-7.4l166-164.8c10.4-9.8 10.6-26.2 0.6-36.4z" />
<glyph unicode="&#xe947;" glyph-name="arrow-up" d="M512 524.2l254-254.2c18.8-18.8 49.2-18.8 67.8 0 18.8 18.8 18.6 49.2 0 68l-287.8 288c-18.2 18.2-47.4 18.6-66.2 1.4l-289.8-289.2c-9.4-9.4-14-21.8-14-34s4.6-24.6 14-34c18.8-18.8 49.2-18.8 67.8 0l254.2 254z" />
<glyph unicode="&#xe948;" glyph-name="at" d="M896 491.4c0-148.2-69.4-241.6-179.2-241.6-56.2 0-99 30-106.4 74.6h-8c-19.8-46.4-60.6-71.8-115.4-71.8-97.6 0-162.8 78.2-162.8 194.6 0 111.8 65.6 189.6 161.4 189.6 49.2 0 91-24.8 109.4-65.4h8v55.6h79.8v-258.6c0-32.2 17.8-51.6 49.8-51.6 55.4 0 90.6 67.2 90.6 171.6 0 166.6-124.8 278-309.2 278-182.4 0-312.4-133-312.4-321.2 0-192.4 128.6-315.2 328.8-315.2 39.2 0 78.6 3.4 108.8 9.2 19.6 3.6 37.6-11.2 37.6-31 0-14.6-10-27.4-24.2-30.8-36.4-8.6-80.2-13.6-125.4-13.6-243.4 0.2-399.2 150.6-399.2 384 0 227.8 159 384.2 390.8 384.2 222.8 0 377.2-139 377.2-340.6zM410.4 445.4c0-74 34.8-118.8 91.4-118.8 59.6 0 97.2 46 97.2 118.8s-37.6 117.8-96.2 117.8c-58.2 0-92.4-43.6-92.4-117.8z" />
<glyph unicode="&#xe949;" glyph-name="attach" d="M711.8 637.8c-17.2 0-31.2-14-31.2-31.2v-388.8c0-40.6-16-80.8-44-110.2-27.8-29.2-70.4-47.4-111-47.4h-27.2c-39.2 0-79 17.8-109.6 49.2-30.4 31-47.8 71.2-47.8 110.4v501.6c0 29.8 12.4 57.8 34.6 79 22.2 21 51.4 32.6 82 32.6 30.2 0 58.6-11.6 79.6-32.4 21-21 32.8-49.2 32.8-79.2v-468.4c0-34.2-27.2-64.4-58-64.4-27.2 0-56.4 25.8-56.4 64.4v267.2c0 17.2-14 31.2-31.2 31.2s-31.2-14-31.2-31.2v-267.2c0-71 51-124.6 118.8-124.6 33 0 63.4 12.2 85.4 34.6 22.6 22.8 35 54.8 35 90v468.4c0 46.8-18.2 90.8-51.4 123.6-33 33-77 51-124 51s-91-18-124.4-51c-33.4-33-51.8-76.8-51.8-123.8v-501.6c0-57.4 24.4-115.8 65.2-156 41.8-41.2 95.8-63.8 152.2-63.8h27.2c55.2 0 110.6 23.4 151.8 64.2 20.4 20.2 36.4 43.4 47.8 69.2 11.8 27 17.8 55.4 17.8 84.2v389.2c0.2 17.2-13.8 31.2-31 31.2z" />
<glyph unicode="&#xe94a;" glyph-name="backspace" d="M790 768h-330c-93.4 0-146.4-69.4-204-127s-144.2-149.4-144.2-149.4c-9.8-11.2-15.8-25.6-15.8-41.8 0-16 6-30.6 15.8-42 0 0 68.6-75.2 144.2-151 75.6-75.6 113.4-129 204-129h330c77 0 138 65 138 142v360.2c0 77-61 138-138 138zM754.6 342.6c12.4-12.4 12.4-32.8 0-45.2s-32.8-12.4-45.2 0l-105.4 105.4-105.4-105.4c-12.4-12.4-32.6-12.8-45.2 0-12.8 12.8-13.4 31.8 0 45.2l105.4 105.4-105.4 105.4c-12 12-14.2 31.2 0 45.2 14.2 14.2 32.8 12.4 45.2 0l105.4-105.4 105.4 105.4c12.4 12.4 32.8 12.4 45.2 0s12.4-32.8 0-45.2l-105.4-105.4 105.4-105.4z" />
<glyph unicode="&#xe94b;" glyph-name="barcode" d="M243.2 184h-81.6c-4.4 0-8 3.6-8 8v512c0 4.4 3.6 8 8 8h81c15.8 0 29 12.8 29.4 28 0.2 7.8-2.6 14.4-8.2 20-5.4 5.6-16 8-23.8 8h-108c-20 0-36-12-36-32v-576c0-20 14-32 34-32h112.6c15.8 0 29 10.4 29.4 25.6 0.2 7.8-2.6 15-8.2 20.6-5.4 5.6-12.8 9.8-20.6 9.8zM894 768h-112.6c-19 0-34.2-16.6-28-36.6 0.4-1.4 1-2.6 1.6-3.8 5.4-10.4 15.2-15.6 25.8-15.6h81.6c4.4 0 8-3.6 8-8v-511.8c0-4.4-3.6-8-8-8h-81c-15.8 0-29-12.4-29.4-27.8-0.2-7.8 2.6-15.2 8.2-20.8 5.4-5.6 12.8-7.6 20.6-7.6h113.2c20 0 34 12 34 32.8v575.2c0 20-14 32-34 32zM245 608c-15.4 0-28-12.6-28-27.8v-264.2c0-15.4 12.6-27.8 28-27.8s28 12.6 28 27.8v264.2c0 15.2-12.6 27.8-28 27.8zM779 288c15.4 0 28 12.6 28 27.8v264.4c0 15.4-12.6 27.8-28 27.8s-28-12.6-28-27.8v-264.2c0-15.4 12.6-28 28-28zM653 672c-15.4 0-28-13-28-28.8v-390.2c0-16 12.6-28.8 28-28.8s28 13 28 28.8v390.2c0 15.8-12.6 28.8-28 28.8zM371 672c-15.4 0-28-13-28-28.8v-390.2c0-16 12.6-28.8 28-28.8s28 13 28 28.8v390.2c0 15.8-12.4 28.8-28 28.8zM512 640c-15.4 0-28-12.8-28-28.4v-327c0-15.6 12.6-28.4 28-28.4s28 12.8 28 28.4v327c0 15.6-12.6 28.4-28 28.4z" />
<glyph unicode="&#xe94c;" glyph-name="baseball" d="M512.6 811.6l19.4 6.2c9.4 3 19.4-2.2 22.4-11.4l0.2-0.8c3-9.4-2.2-19.4-11.4-22.4l-23-7.2c-4.2-1.4-6.4-5.8-5.2-9.8 4.2-13.8 9-27.4 14.4-41 3.8-9.2 7.8-18.4 12.2-27.4 2.2-4.4 7.6-6 11.8-3.2l17 11.6c8.2 5.4 19.2 3.4 24.6-4.8l0.4-0.6c5.4-8.2 3.4-19.2-4.8-24.6l-20.8-14.2c-2.158-1.455-3.558-3.891-3.558-6.654 0-1.533 0.431-2.964 1.178-4.181l-0.020 0.035c14-22 29.8-43 47.4-62.6 3-3.4 8.4-3.6 11.6-0.4l15 15c7 7 18.2 7 25 0l0.6-0.6c7-7 7-18.2 0-25l-15-15c-3.2-3.2-3-8.6 0.4-11.6 20.4-18.2 42-34.6 65-48.8 1.182-0.727 2.614-1.158 4.146-1.158 2.763 0 5.198 1.4 6.636 3.53l0.018 0.028 13.8 20.4c5.4 8.2 16.6 10.2 24.6 4.8l0.6-0.4c8.2-5.4 10.2-16.6 4.8-24.6l-11-16.2c-2.8-4-1.2-9.6 3.2-11.8 8.2-3.8 16.4-7.6 24.8-11 14.2-5.8 28.6-10.8 43.4-15.2 4.2-1.2 8.6 1 10 5.2l7 21.6c3 9.4 13 14.4 22.4 11.4l0.8-0.2c9.4-3 14.4-13 11.4-22.4l-5.6-17.6c-1.4-4.6 1.4-9.4 6.2-10.4 14.2-2.6 28.6-4.6 43-5.8 0.2 5.2 0.4 10.6 0.4 15.8 0 229.8-186.2 416-416 416-5.4 0-10.6-0.2-16-0.4 1.4-15.4 3.4-30.6 6.2-45.8 0.8-5 5.8-7.8 10.4-6.4zM516 65.6c-0.8 4.8-5.6 7.8-10.4 6.4l-23.2-7.4c-9.4-3-19.4 2.2-22.4 11.4l-0.2 0.8c-3 9.4 2.2 19.4 11.4 22.4l27.6 8.8c4 1.4 6.4 5.6 5.2 9.8-4.6 15.8-10 31.2-16.2 46.6-3.2 8-6.6 15.8-10.4 23.6-2 4.4-7.6 6-11.8 3.2l-21.8-14.8c-8.2-5.4-19.2-3.4-24.6 4.8l-0.4 0.6c-5.4 8.2-3.4 19.2 4.8 24.6l26 17.6c2.158 1.455 3.558 3.891 3.558 6.654 0 1.533-0.431 2.964-1.178 4.181l0.020-0.035c-14.4 23.4-31 45.4-49.6 66.2-3 3.4-8.4 3.6-11.6 0.4l-19.8-19.8c-7-7-18.2-7-25 0l-0.6 0.6c-7 7-7 18.2 0 25l19.8 19.8c3.2 3.2 3 8.6-0.4 11.6-20 18-41.2 34-63.8 48-1.182 0.727-2.614 1.158-4.146 1.158-2.763 0-5.198-1.4-6.636-3.53l-0.018-0.028-18-26.6c-5.4-8.2-16.6-10.2-24.6-4.8l-0.6 0.4c-8.2 5.4-10.2 16.6-4.8 24.6l15.2 22.6c2.8 4 1.2 9.6-3.2 11.8-8.6 4.2-17.2 8-26.2 11.6-14.6 5.8-29.2 11-44.2 15.4-4 1.2-8.6-1.2-9.8-5.2l-9.2-28.8c-3-9.4-13-14.4-22.4-11.4l-0.8 0.2c-9.4 3-14.4 13-11.4 22.4l8 24.8c1.4 4.6-1.4 9.6-6.2 10.4-11.6 2-23.4 3.6-35.2 4.8-0.2 0-0.6 0-0.8 0.2v-8.4c0-229.8 186.2-416 416-416h8.4c0 0.2-0.2 0.6-0.2 0.8-1 10.8-2.4 21.8-4.2 32.6zM862.2 398.2l-11.8-36.8c-3-9.4-13-14.4-22.4-11.4l-0.8 0.2c-9.4 3-14.4 13-11.4 22.4l10.6 33.2c1.4 4.2-1 8.8-5.4 10.2-27 8-53.6 18.4-79.4 31.2-3.6 1.8-8 0.6-10.2-2.6l-21-30.8c-5.4-8.2-16.6-10.2-24.6-4.8l-0.6 0.4c-8.2 5.4-10.2 16.6-4.8 24.6l18.4 27.2c2.6 3.8 1.4 8.8-2.4 11.2-24.6 15.4-48.2 33.2-70.4 53.4-3.2 2.8-8 2.8-11-0.2l-25.6-25.6c-7-7-18.2-7-25 0l-0.6 0.6c-7 7-7 18.2 0 25l25.6 25.6c3 3 3.2 7.8 0.2 11-19.4 21.6-36.8 44.4-52 68-2.4 3.8-7.6 5-11.2 2.4l-26.6-18c-8.2-5.4-19.2-3.4-24.6 4.8l-0.4 0.6c-5.4 8.2-3.4 19.2 4.8 24.6l30.2 20.4c3.4 2.2 4.4 6.6 2.6 10.2-12.8 25.8-23.4 52.4-31.6 79.4-1.4 4.2-5.8 6.8-10.2 5.4l-31.8-10.2c-9.4-3-19.4 2.2-22.4 11.4l-0.2 0.8c-3 9.4 2.2 19.4 11.4 22.4l35.2 11.2c3.8 1.2 6.2 5.2 5.4 9.2-3.6 18.4-6.2 37.2-7.8 55.8-190.8-23.6-341.6-176.4-362-368.2h2c15-1.4 30-3.6 44.8-6.4 4-0.8 8 1.6 9.2 5.4l9.4 29.6c3 9.4 13 14.4 22.4 11.4l0.8-0.2c9.4-3 14.4-13 11.4-22.4l-8.4-26c-1.4-4.4 1-8.8 5.4-10.2 27.8-8.2 55-18.8 81.4-32 3.6-1.8 8-0.6 10.2 2.6l16.6 24.6c5.4 8.2 16.6 10.2 24.6 4.8l0.6-0.4c8.2-5.4 10.2-16.6 4.8-24.6l-14.2-21c-2.6-3.8-1.4-8.8 2.4-11.2 24.2-15.4 47.4-32.8 69.2-52.6 3.2-2.8 8-2.8 11 0.2l20.8 20.8c7 7 18.2 7 25 0l0.6-0.6c7-7 7-18.2 0-25l-20.4-20.8c-3-3-3.2-7.8-0.2-11 20.4-22.6 38.4-46.6 54-71.6 2.4-4 7.4-5 11.4-2.4l21.6 14.6c8.2 5.4 19.2 3.4 24.6-4.8l0.4-0.6c5.4-8.2 3.4-19.2-4.8-24.6l-25.4-17.2c-3.4-2.2-4.4-6.6-2.6-10.2 12.8-26.4 23.4-53.4 31.4-81.2 1.2-4.4 5.8-6.8 10.2-5.4l27.2 8.8c9.4 3 19.4-2.2 22.4-11.4l0.2-0.8c3-9.4-2.2-19.4-11.4-22.4l-31.2-10c-3.8-1.2-6.2-5.2-5.4-9.2 2.6-14 4.6-28.2 6-42.4v-2c191.8 20.4 344.6 171.2 368.2 362-17.8 1.4-35.8 3.8-53.4 7.2-3.8 0.6-7.8-1.8-9-5.6z" />
<glyph unicode="&#xe94d;" glyph-name="basket" d="M775.8 212.6h98.4l35 150.8h-133.4zM775.8 64h1c37.4 0 66.8 25 76.6 59l12 51.8h-89.6v-110.8zM530.8 175h207.4v-111h-207.4zM150 212.6h98v150.8h-133zM285.8 576h207.4v-175h-207.4zM530.8 576h207.4v-175h-207.4zM171 123.4c9.4-34 38.8-59.4 76.2-59.4h1v111h-89.4l12.2-51.6zM285.8 175h207.4v-111h-207.4zM530.8 363.4h207.4v-150.8h-207.4zM285.8 363.4h207.4v-150.8h-207.4zM928 576h-95.8v192c0 35.2-28.8 64-64 64h-512.4c-35.2 0-64-28.8-64-64v-192h-95.8c-20.6 0-35.8-19.2-31.2-39.2l39.4-135.8h143.8v347c0 15.4 12.6 28 28 28h472c15.4 0 28-12.6 28-28v-347h144l39.2 135.8c4.6 20-10.6 39.2-31.2 39.2z" />
<glyph unicode="&#xe94e;" glyph-name="basketball" d="M437.2 347.2c28.6 23.6 56.6 48.8 82.8 75.2l12.2 12.2c-5.6 5.8-11.2 11.6-16.6 17-99.8 99.8-215.4 179.2-343.6 236.2-36.8-52.2-62-113.2-71.6-179.2 64.4-4.6 126.4-21 184.4-49 57.6-27.8 108.8-65.6 152.4-112.4zM652.2 588.8c1-1 2.2-2.2 3.4-3.2 41.8 61 77.6 126.4 107 194.8-67.6 51-151.2 82-242 83.8 4.8-44.6 16-88.2 33.4-129.4 23-54.8 56.2-104 98.2-146zM798 490.4c41.4-17.6 85.2-28.8 130-33.4-2.4 112.6-49.6 214.2-124.4 287.8-30-67.6-66.6-132.6-108.8-193.6 31.6-24.8 66.4-45.2 103.2-60.8zM387.8 323.8c-42.2 42.2-91.2 75.2-145.8 98.4-46.4 19.6-95.4 31.2-145.8 34.8 0-3-0.2-6-0.2-8.8 0-97.4 33.4-187 89.6-257.8 74.6 34 145.4 75.8 210.8 124.8-3 2.8-5.8 5.8-8.6 8.6zM567.6 472.8c20.2 22.6 39.4 46.2 57.6 70.2-89 84.6-144.2 197.2-156.4 319-103.8-10.8-196.2-59.6-263-132.4 66.8-30.6 131-67.6 191.2-110.2 61-43.4 118.4-92.6 170.6-146.6zM602.8 434.4c77.8-88 141.8-186.4 190.6-292.8 72.8 67 121.8 159.6 132.4 263.4-95.4 9.4-185.6 45.2-261.6 104-19.2-25.4-40-50.6-61.4-74.6zM470.6 307.6c59.8-79 95-172.4 102-271.2 66 9.6 127 34.8 179 71.6-46.8 105.2-108.6 202-184.4 288.4-30.4-31.2-62.8-61-96.6-88.8zM429.8 275.4c-64.8-48.8-134.8-91-208-125.6 75-73 177.2-118 290.2-118 3 0 6 0 9 0.2-3.6 50.4-15.2 99.4-34.8 145.8-14.8 35-33.6 67.6-56.4 97.6z" />
<glyph unicode="&#xe94f;" glyph-name="battery-charging" d="M792 672h-664c-52.8 0-96-43.2-96-96v-256c0-52.8 43.2-96 96-96h664c52.8 0 96 43.2 96 96v256c0 52.8-43.2 96-96 96zM832 320c0-22-18-40-40-40h-664c-22 0-40 18-40 40v256c0 22 18 40 40 40h664c22 0 40-18 40-40v-256zM928 550.8v-205.6c32 0 64 55.4 64 102.8s-32 102.8-64 102.8zM768 576h-616c-13.2 0-24-10.8-24-24v-208c0-13.2 10.8-24 24-24h616c13.2 0 24 10.8 24 24v208c0 13.2-10.8 24-24 24zM437.6 344l16.8 86h-54.4l90.4 122-16.8-86h54.4l-90.4-122z" />
<glyph unicode="&#xe950;" glyph-name="battery-dead" d="M792 672h-664c-52.8 0-96-43.2-96-96v-256c0-52.8 43.2-96 96-96h664c52.8 0 96 43.2 96 96v256c0 52.8-43.2 96-96 96zM832 320c0-22-18-40-40-40h-664c-22 0-40 18-40 40v256c0 22 18 40 40 40h664c22 0 40-18 40-40v-256zM928 550.8v-205.6c32 0 64 55.4 64 102.8s-32 102.8-64 102.8z" />
<glyph unicode="&#xe951;" glyph-name="battery-full" d="M792 672h-664c-52.8 0-96-43.2-96-96v-256c0-52.8 43.2-96 96-96h664c52.8 0 96 43.2 96 96v256c0 52.8-43.2 96-96 96zM832 320c0-22-18-40-40-40h-664c-22 0-40 18-40 40v256c0 22 18 40 40 40h664c22 0 40-18 40-40v-256zM928 550.8v-205.6c32 0 64 55.4 64 102.8s-32 102.8-64 102.8zM768 576h-616c-13.2 0-24-10.8-24-24v-208c0-13.2 10.8-24 24-24h616c13.2 0 24 10.8 24 24v208c0 13.2-10.8 24-24 24z" />
<glyph unicode="&#xe952;" glyph-name="beaker" d="M890.4 864h-633.4c-108.8 0-129-55.8-129-80.4 60.6-8.4 64-8.4 64-72.4v-551c0-70.6 57.8-128 128.4-128h415.6c70.8 0 126 58.4 126 129v620.4c4 35 25 63.2 27.2 66.6 2.4 3.8 6.8 8.8 6.8 11 0 2.4-0.6 4.8-5.6 4.8zM224.4 805.4c0 0.2 0 0.2 0 0 12 2 24 2.6 32.6 2.6h553c-1.8-7.4-3-14.2-3.6-20-0.2-2.2-0.4-4.2-0.4-6.4v-141.6h-558v71c0 35.2 0 68.4-23.6 94.4z" />
<glyph unicode="&#xe953;" glyph-name="bed" d="M916.4 544h-0.8c-24 0-43.6-19.6-43.6-43.6 0-2.4-2-4.4-4.4-4.4h-711.2c-2.4 0-4.4 2-4.4 4.4 0 24-19.6 43.6-43.6 43.6h-0.8c-24 0-43.6-19.6-43.6-43.6v-360.8c0-24 19.6-43.6 43.6-43.6h0.8c24 0 43.6 19.6 43.6 43.6v12.4c0 4.4 3.6 8 8 8h704c4.4 0 8-3.6 8-8v-12.4c0-24 19.6-43.6 43.6-43.6h0.8c24 0 43.6 19.6 43.6 43.6v360.8c0 24-19.6 43.6-43.6 43.6zM168 532h45c4.4 0 8 3.6 8 8v26c0 17.6 14.4 32 32 32h195c17.6 0 32-14.4 32-32v-26c0-4.4 3.6-8 8-8h48c4.4 0 8 3.6 8 8v26c0 17.6 14.4 32 32 32h195c17.6 0 32-14.4 32-32v-26c0-4.4 3.6-8 8-8h45c8.8 0 16 7.2 16 16v188c0 35.2-28.8 64-64 64h-592c-35.2 0-64-28.8-64-64v-188c0-8.8 7.2-16 16-16z" />
<glyph unicode="&#xe954;" glyph-name="beer" d="M224 636c0 26.6 21.4 48 48 48h459c9.8 0 19.2-3 27-8.8 4-3 9.8 0 9.6 5-0.2 11.4-0.4 18.6-0.4 43.2 0 41.6-34.4 76.6-76.2 76.6h-0.4c-11.4 0.8-21.6 8-25.8 18.6-18 45.2-64.6 77.2-112.8 77.2-42 0-68.4-14-88-36.6-8.8-10-23.6-11.8-34.8-4.8-14.6 9.2-32.2 14.2-51 14.2-28.8 0-54.4-14.2-71.6-34.8-8-9.8-20.8-14-33.2-11.8-10.4 2-25.2 3.6-45.4 3.6-50 0-100-33.2-100-84.8v-8c0-57.6 32-45.8 32-83.6v-101.6c0-26.8-22.4-38.6-22.4-70.4 0-17.6 16-33.6 33.6-33.6h52.8v192.4zM772 56h-552c-15.4 0-28-12.6-28-28s12.6-28 28-28h552c15.4 0 28 12.6 28 28s-12.6 28-28 28zM800 572h-64v48c0 17.6-14.4 32-32 32h-416c-17.6 0-32-14.4-32-32v-427.6c0-24.2-2.2-36.4-6.4-60.2l-0.2-1c-1.6-9.4 0.4-19 5.6-27 6.8-10.2 18.2-16.4 30.6-16.4h427.8c8.2 0 16.2 2.8 22.2 8.2 9.4 8.2 13 20.6 10.4 32-5.4 23.6-9 35.6-9.6 59.8h63.6c52.8 0 96 43.2 96 96v192c0 53-43.2 96.2-96 96.2zM840 284c0-22-18-40-40-40h-64v272h64c22 0 40-18 40-40v-192z" />
<glyph unicode="&#xe955;" glyph-name="bicycle" d="M250.6 381.4c34.6 0 67.4-13.6 92.2-38.4s38.4-57.6 38.4-92.2-13.6-67.4-38.4-92.2c-24.8-24.8-57.6-38.4-92.2-38.4s-67.4 13.6-92.2 38.4c-24.8 24.6-38.4 57.4-38.4 92s13.6 67.4 38.4 92.2c24.8 24.8 57.6 38.6 92.2 38.6zM250.6 437.4c-102.6 0-186.6-84-186.6-186.6 0-102.8 84-186.8 186.6-186.8s186.6 84 186.6 186.6c0.2 102.8-83.8 186.8-186.6 186.8zM639.6 704.4c35.6 0 64 28.4 64 64s-28 63.6-63.6 63.6-64.4-28-64.4-63.6c0-35.4 28.6-64 64-64zM773.4 381.4c34.6 0 67.4-13.6 92.2-38.4s38.4-57.6 38.4-92.2-13.6-67.4-38.4-92.2c-24.8-25-57.6-38.6-92.2-38.6s-67.4 13.6-92.2 38.4c-24.8 24.8-38.4 57.6-38.4 92.2s13.6 67.4 38.4 92.2c24.6 24.8 57.4 38.6 92.2 38.6zM773.4 437.4c-102.6 0-186.6-84-186.6-186.6s84-186.6 186.6-186.6 186.6 84 186.6 186.6-84 186.6-186.6 186.6zM736 576h-96l-59 120.2c-11.2 18.6-31.8 31.8-54.2 31.8-16.8 0-33.6-7.4-44.8-18.6l-143.4-138.2c-11.2-11.2-18.6-28-18.6-44.8 0-34.8 25.2-47.2 37-54.2 91-52.4 123-58.2 123-84.4v-131.8c0-17.6 14.4-32 32-32s32 14.4 32 32v180c0 26.4-60.8 48-96.6 76l97.8 103c37.4-57 54.6-103 76-103h114.8c17.6 0 32 14.4 32 32s-14.4 32-32 32z" />
<glyph unicode="&#xe956;" glyph-name="bluetooth" d="M757 294l-176.6 154 176.4 152.2c13.8 12 14.8 32.6 2.2 45.8l-233.6 242.8c-4.4 4.6-10.8 7.2-17.2 7.2-12.2 0-22.2-9.8-22.2-21.6v-338.4l-172.6 146.6c-14.2 12-35.6 10.6-48.2-3-13-14-11.6-35.8 3.2-48.2l217.6-183.4-216.2-181.8c-14.6-12.2-16.2-33.6-3.4-47.8l0.6-0.6c12.6-14 34.6-15.4 49-3l170 147.2v-339.6c0-12.4 10.2-22.4 23-22.4 6.4 0 12.4 2.6 16.8 7l233.4 241c12.6 13.2 11.6 33.8-2.2 46zM558.8 758.2l125.4-131.8c1.6-1.6 1.4-4.2-0.4-5.8l-125.4-106c-2.6-2.2-6.8-0.4-6.8 3v237.8c0.2 3.8 4.8 5.4 7.2 2.8zM551.8 140.2v236.6c0 3.4 4.2 5.2 6.8 3l125.4-106c1.8-1.4 1.8-4 0.4-5.8l-125.4-130.6c-2.6-2.6-7.2-0.8-7.2 2.8z" />
<glyph unicode="&#xe957;" glyph-name="boat" d="M703.6 116c-52.4-18.4-133-29.8-192.2-29.8s-139.8 11.4-192.2 29.8c0 0-52.2-47.8-124.6-72.4-4.6-1.6-3-8.4 1.8-7.8 45.2 5.2 80.4 13 122.8 24 46-18 133.4-27.8 192.2-27.8s148.2 7.6 192.2 27.8c43-11.2 77.6-19.2 124-24.2 4.8-0.6 6.4 6.2 1.8 7.8-71.4 24.8-125.8 72.6-125.8 72.6zM891 434l-372.4 171c-4.2 2-9.2 2-13.4 0l-372.2-171c-12.4-5.8-21-18.2-21-32.8 0-4.8 1-9.2 2.6-13.4l109.4-271.8c55 0 113.4 44 113.4 44 36-18 106.2-34.2 158.6-37.2 5.6-0.4 11-0.4 16-0.4s10.4 0.2 16 0.4c52.4 3 122.6 19 158.6 37.2 0 0 58.4-44 113.4-44l109.4 271.8c1.6 4.2 2.6 8.6 2.6 13.4 0 14.6-8.6 27-21 32.8zM424 384c-13.2 0-24 19.6-24 44s10.8 44 24 44 24-19.6 24-44-10.8-44-24-44zM600 384c-13.2 0-24 19.6-24 44s10.8 44 24 44 24-19.6 24-44-10.8-44-24-44zM783.8 706v0.2c-11.2 53.2-35 93.8-79.8 93.8h-69.2l-4 16c-7.2 28.2-32.8 48-62 48h-114c-29.2 0-54.8-19.8-62-48.2l-4-15.8h-68.8c-45.8 0-70.2-41.4-79.6-94l-36.4-193.6c-1.2-6.4 5.2-11.4 11.2-8.8l50.6 23.2c2.4 1 4 3.2 4.6 5.8l32.4 171.2c5 21.4 14.6 32 32.2 32h354.2c17.8 0 26.2-10 32.2-32l32.4-171.2c0.4-2.6 2.2-4.8 4.6-5.8l50.8-23.4c6-2.8 12.4 2.4 11.2 8.8l-36.6 193.8z" />
<glyph unicode="&#xe958;" glyph-name="body" d="M608 800c0-53.019-42.981-96-96-96s-96 42.981-96 96c0 53.019 42.981 96 96 96s96-42.981 96-96zM848 672h-672c-26.6 0-48-21.4-48-48s21.4-48 48-48h197c11.2-2 26.4-7.6 34.4-28.4 9.4-24.2 4.8-67.2-1-103.4l-7.6-42.8c0-0.2 0-0.4-0.2-0.6l-60.8-344.4c-4.6-26 12.8-51 39-55.6s50.6 12.8 55.2 39l42 239.8v-0.4s12.4 65 37 65h2.2c25 0 37-65 37-65v0.2l42-239.8c4.6-26 29.4-43.4 55.4-38.8 26.2 4.6 43.4 29.6 38.8 55.6l-60.8 344.4c0 0.2 0 0.4-0.2 0.6l-7.6 42.8c-5.8 36.2-10.4 79.2-1 103.4 8 20.8 23.2 26.4 34.4 28.4h196.8c26.6 0 48 21.4 48 48s-21.4 48-48 48z" />
<glyph unicode="&#xe959;" glyph-name="bonfire" d="M541.8 258.8c-1.4 16.4-15.2 29.2-31.8 29.2-15.2 0-28-10.8-31.2-25l-31.2-157c-1-4.6-1.6-9.2-1.6-14 0-35.4 28.6-60 64-60s64 24.6 64 60c0 5.8-0.8 11.4-2.2 16.8l-30 150zM777.8 187.4c-3.4 2.8-6.6 5.8-10.2 7.8l-119.2 87c-11.6 7.6-24 7.4-33-1.8-8.2-8.2-9.4-20.8-3.4-30.8l90-123.6c1.8-3 4.4-5.6 6.8-8.4 15.6-18.2 50.2-19.2 69.2 0 18.8 19.6 18.6 54.4-0.2 69.8zM870.8 320h-119c-7.8 0-14.8-4.4-16.2-12.4-1.2-7.2 2.6-14.2 9.4-17.6h0.2l115.4-35.6c16.6-3.8 35.4 11 35.4 29.6 0 23.6-9.6 36-25.2 36zM278.4 290c6.6 3.2 10.6 10.4 9.4 17.6-1.4 8-7.8 12.4-16.2 12.4h-119c-15.2 0-24.6-16.6-24.6-35.2s18.2-34.2 34.8-30.4l115.6 35.6zM375.8 282.4l-119.2-86.8c-3.6-2.2-7.2-4.8-10.2-7.8-19.2-19.2-19.2-50.2 0-69.2 19.2-19.2 50.2-19.2 69.2 0 2.6 2.6 4.8 5.4 6.8 8.4l90 123.2c6 10 5 22.4-3.4 30.6-9.2 9-23.6 9.6-33.2 1.6zM717.4 682.6c0 115.2-144.8 181.4-192 181.4 24-161.6-203.4-226-224-362.6s96-181.4 96-181.4c32.6 113.2 144.8 151.2 219.4 199.6 81.4 52.8 100.6 102.6 100.6 163zM717.4 440.8c10 29.4 3.8 98.6-6 126.8-18-35-52.6-64.8-94.4-92-17.2-11.2-41.8-21.6-59.6-31.8-37.4-21-68-41.2-92.6-68.8 22.6-32.8 62.6-55.4 92.6-55.4 72 0.4 128 27.4 160 121.2zM323.6 616.2c23.4 30.2 49.8 47.6 76.4 72.4 26.8 25 44.2 42.4 55 62.6-21.4 40.2-61.6 56.2-89.4 52.2 4.6-57.2-60-88-64-129.6-2.6-25.2 10.8-50 22-57.6z" />
<glyph unicode="&#xe95a;" glyph-name="book" d="M292 831.8c108.2 0 200-55.8 200-164v-599.8c0-4.4-6.2-5.4-7.6-1.4v0.2c-20.6 68.4-76.4 135.2-164.6 141-68.4 4.4-133.8-25.8-186.2-74.2-3.2-3-8.6-5.8-13.2-5.8h-9c-7.4 0-15.2 5.4-15.2 12.2v579.6c-0.2 64.2 87.6 112.2 195.8 112.2zM732 832c-108.2 0-200-55.8-200-164v-599.8c0-4.4 6.2-5.4 7.6-1.4v0.2c20.6 68.4 78.8 135.8 164.6 141 65.8 4 127.8-22 186.2-74.2 3.2-2.8 8.6-5.8 13.2-5.8h9c7.4 0 15.2 5.4 15.2 12.2v579.8c0.2 64-87.6 112-195.8 112z" />
<glyph unicode="&#xe95b;" glyph-name="bookmark" d="M256 800v-760c0-6.6 7.6-10.4 12.8-6.4l233.6 184c5.8 4.2 13.6 4.2 19.2 0l233.6-184c5.2-4 12.8-0.2 12.8 6.4v760c0 35.4-28.6 64-64 64h-384c-35.4 0-64-28.6-64-64z" />
<glyph unicode="&#xe95c;" glyph-name="bookmarks" d="M832 896v-255.8l-45.8 29-18.2 12.8-18.2-12.8-45.8-29v255.8h-82.8c-45-0.4-81.2-37.6-81.2-82.8v-626.4c0-15-11.6-28-26.6-28.8-16-0.8-29.4 12-29.4 28v627.2c0 45.2-36.2 82.4-81.2 82.8h-212.6c-60.6 0-110.2-49.6-110.2-110.2v-579.6c0-60.6 49.6-110.2 110.2-110.2l216 0.2c8.4-0.2 16.6-1.2 24.4-2.8 30.6-6.2 53.6-33.2 53.2-64.4-0.2-14.4 10.4-27.2 24.8-28.8 17-1.8 31.4 11.4 31.2 28.2-0.4 31.6 22.8 58.8 53.8 65 7.6 1.6 15.8 2.4 24 2.6l216-0.2c60.6 0 110.2 49.6 110.2 110.2v579.8c0.2 60.6-51.2 110.2-111.8 110.2z" />
<glyph unicode="&#xe95d;" glyph-name="bowtie" d="M581.6 533c-9.6 17-27.6 22.6-49.6 22.6v0.4c-12 0-28.6-2.6-45.2-5.8-23.8-4.6-39.4-14.2-39.4-14.2s7.2-54.6 0.2-117-15.8-85-15.8-85 10.6-24.2 80-30c7.8-0.6 15.2-1 22-1 49 0 72.8 14.6 72.8 14.6s6.6 10.8 8.6 44.2c3.8 64.4-14 137-33.6 171.2zM411.4 542.4c-44 80.4-172.4 193.6-242.6 193.6-53 0-104.8-137-104.8-288s46-288 103-288c66.8 0 221 160 221 160s11.4 25.2 19.8 67.2l3.6 20.8c1.4 9.4 2.6 19.4 3.4 30 0.6 7 1 13.6 1.2 19.8l0.6 19.6c1.4 32-5.2 65-5.2 65zM855.2 736c-72.8 0-192.8-113-236.6-193.6l-1.6-2.8s2.8-5 3.8-6.8c6.8-12 13.4-28.6 18.8-48l5.8-23.4c4.4-20.4 7.4-42.4 8.4-64.4l0.4-18c0-5.8-0.2-11.4-0.6-17-2-33.4-9.2-44.2-9.2-44.2 15.2-21 138-157.8 212.4-157.8 57 0 103 137 103 288s-51.6 288-104.6 288z" />
<glyph unicode="&#xe95e;" glyph-name="briefcase" d="M160 64h704c35.4 0 64 28.6 64 64v384h-832v-384c0-35.4 28.6-64 64-64zM864 704h-16v16c0 8.8-7.2 16-16 16h-64c-8.8 0-16-7.2-16-16v-16h-56v64c0 35.2-28.8 64-64 64h-240c-35.2 0-64-28.8-64-64v-64h-56v16c0 8.8-7.2 16-16 16h-64c-8.8 0-16-7.2-16-16v-16h-16c-35.4 0-64-28.6-64-64v-80h832v80c0 35.4-28.6 64-64 64zM640 704h-256v56c0 8.8 7.2 16 16 16h224c8.8 0 16-7.2 16-16v-56z" />
<glyph unicode="&#xe95f;" glyph-name="browsers" d="M96 597.2v-485.2c0-44.2 35.8-80 80-80h485.2c44.2 0 80 35.8 80 80v485.2c0 44.2-35.8 80-80 80h-485.2c-44.2 0-80-35.8-80-80zM282.8 784v-56.8c0-4.4 3.6-8 8-8h396.4c52.8 0 96-43.2 96-96v-396.4c0-4.4 3.6-8 8-8h56.8c44.2 0 80 35.8 80 80v485.2c0 44.2-35.8 80-80 80h-485.2c-44.2 0-80-35.8-80-80z" />
<glyph unicode="&#xe960;" glyph-name="brush" d="M299.2 393.4c-103.8 0-167.8-91.4-167.8-190.2 0-42.6-21.8-74.2-62.8-92.8-4.4-2-6-7.6-3.4-11.6 33.4-49.2 126.6-66.6 190.6-66.6 16.8 0 31.8 1.2 43.6 3.4 71.2 12.8 160.2 49.8 181.4 154 24.4 121-77.8 203.8-181.6 203.8zM935.4 839.2c-15.4 15.4-33.6 24.8-52.2 24.8-12.6 0-25.4-4.4-37.6-14l-330.2-290.6c-10.8-9.6-24.8-14.8-39.4-14.8h-0.4c-11.2 0-22.2-4.2-30.8-11.6l-107.2-87.6c-4.2-3.6-5.4-9.6-2.8-14.4 1.8-3.4 5.2-5.8 9-6.2 91.2-9 174-74 174.6-173.2 0-3.4 1.4-6.8 4-9 5-4.2 12-3.4 16 1.2l90.2 104.4c7 8 11.6 18.2 12 29v2.4c0 15 6 29.6 16 40.8l289.6 328.8c23.8 30.2 15.2 64.2-10.8 90z" />
<glyph unicode="&#xe961;" glyph-name="bug" d="M749.2 705.4c-58.4 77.6-143 126.6-237.2 126.6s-178.8-49-237.2-126.6c12.8-31.2 31.6-60 56.2-84.6 48.4-48.4 112.6-75 181-75s132.6 26.6 181 75c24.6 24.6 43.6 53.2 56.2 84.6zM244 660s-7.6 3.2-11.8 6.6c-4.2 3.4-10 9.8-13 16.8 10.8 22.6 2.4 50-19.8 62.6-23.6 13.2-53.8 4.4-66.2-20-9-17.8-5.8-39.6 7.6-54.2 3.6-3.8 7.4-6.8 11.4-9.2 5.6-3.2 9.8-8 12.8-13.6 5.4-10.4 12.8-21.4 22.2-29.2 8.4-7 17.6-14.2 30.4-21.4-14.4-40.6-23.2-84.6-25-130.8-22-0.4-37.2-4.2-51-8.2-8.4-2.4-16.4-6.8-23.6-11.8-2 0.2-3.8 0.4-5.8 0.4-27.6 0-49.6-23.2-48-51.2 1.4-23.6 20.6-43 44.4-44.8 22-1.6 41.2 11.8 48.6 31 4 10.6 13.4 18.4 24.8 19.8 3.8 0.4 7.8 0.8 12.4 0.8 6.4-66 26.6-127 57.2-178.4-28.4-22-45.8-46-53.2-72.6 0 0-1.6-0.8-3.8-2.8-2-1.6-3.8-3.2-5.6-5.2-17.8-19.8-16.2-50 3.6-67.8s50-16.2 67.8 3.6c12.4 13.8 15.2 32.6 9.2 49-4.4 12-1.4 25.4 7.8 34 3.2 3 7 6.2 11.4 9.8 54.2-63.4 118.8-104 199.4-108.8v429.8c-106.6 5.8-199.4 75.2-244.2 165.8zM912 447.8c-2 0-4-0.2-5.8-0.4-7.2 5-15.4 9.2-23.6 11.8-13.8 4-28.8 7.8-51 8.2-2 46.2-10.8 90.4-25 130.8 12.8 7.2 22 14.4 30.4 21.4 9.8 8.2 17.4 20 23 30.6 2.6 5 6.6 9 11.6 11.8 0 0 0.2 0 0.2 0.2 23.2 13 31.4 42.2 18.4 65.4s-42.2 31.4-65.4 18.4c-22.2-12.4-30.6-39.8-19.8-62.6-3.2-6.8-6.8-11.4-13-16.8-4.6-4-11.8-8.6-11.8-8.6-44.8-90.6-137.6-158-244-163.8v-430.2c80.6 4.8 145.2 45.6 199.4 108.8 4.2-3.4 7.8-6.4 10.8-9.2 9.6-8.8 12.8-22.6 8.4-35-6-16.2-3-35 9.4-48.6 17.8-19.8 48-21.4 67.8-3.6s21.4 48 3.6 67.8c-1.8 2-3.6 3.6-5.6 5.2-2.2 1.8-3.8 2.8-3.8 2.8-7.4 26.6-24.8 50.6-53.2 72.6 30.6 51.4 50.8 112.4 57.2 178.4 4.2 0 8.2-0.4 11.8-0.8 11.8-1.4 21.4-9.4 25.8-20.4 7.4-18.8 26.4-31.8 48.2-30.2 23.6 1.8 42.8 21 44.4 44.8 1.2 28-20.8 51.2-48.4 51.2z" />
<glyph unicode="&#xe962;" glyph-name="build" d="M882.2 697.8l-89.8-90.2c-1.8-1.8-4.6-2.6-7-2.2l-92.8 16.8c-3.2 0.6-5.8 3.2-6.4 6.4l-16.6 92.8c-0.4 2.6 0.4 5.2 2.2 7l89.6 90c7 7 6 18.6-2 24.2-20.2 14.4-44.2 21.4-63.6 21.4-1.4 0-2.8 0-4-0.2-25-1.4-78.6-15.4-120-59.4-40.2-42.4-82.2-121.2-45-209 4.4-10.6 9.4-24.6-5.4-39.4-15.2-14.8-399.4-376.6-399.4-376.6-36-31-33.4-88.4-0.2-121.8 17-16.8 40-25.6 62.6-25.6 22.2 0 43.8 8.4 59.2 26.2 0 0 358.8 382.2 376.4 399.6 8 7.8 15.4 10.2 22.2 10.2 6.6 0 12.6-2.4 17.2-4.8 19.8-10.2 42-14.8 64.8-14.8 53.6 0 110 24.8 144.4 59.2 48.8 48.8 57.8 96 59.2 120.2 1.2 19.8-4.4 45.2-21.4 68.4-5.8 7.6-17.2 8.4-24.2 1.6zM205 101.4c-11-10.8-28.8-10.8-39.8 0-10.8 11-10.8 28.8 0 39.8 11 10.8 28.8 10.8 39.8 0 10.8-11.2 10.8-29 0-39.8z" />
<glyph unicode="&#xe963;" glyph-name="bulb" d="M808 582.2c0 155.8-140.2 281.8-296 281.8s-296-126.2-296-281.8c0-62 26.4-112.2 60.4-160.2h-0.6c21.8-30 42.8-35.4 63-70 29.4-50.4 36.2-81.4 37.4-111.4 0.8-17.2 15-30.6 32-30.6h17.8c4.4 0 8 3.6 8 8v189c0 10-2.4 19.6-6.8 28.6l-42 84c-7 14 3.2 30.4 18.8 30.4 8 0 15.4-4.6 18.8-11.8l50.6-102.8c4.4-8.8 6.6-18.4 6.6-28.2v-189.2c0-4.4 3.6-8 8-8h48c4.4 0 8 3.6 8 8v189.2c0 9.8 2.2 19.4 6.6 28.2l50.8 103.2c3.4 6.8 10.4 11.2 18 11.2 15 0 24.8-15.8 18-29.2l-42.6-85.2c-4.4-9-6.8-18.8-6.8-28.6v-188.8c0-4.4 3.6-8 8-8h20c17 0 31 13.2 32 30 1.8 30.8 9.4 64.6 36.8 112 20.2 34.6 41.2 40 63 70h-0.2c34 48 60.4 98.2 60.4 160.2zM476 32h72c15.4 0 28 12.6 28 28s-12.6 28-28 28h-72c-15.4 0-28-12.6-28-28s12.6-28 28-28zM436 120h152c15.4 0 28 12.6 28 28s-12.6 28-28 28h-152c-15.4 0-28-12.6-28-28s12.6-28 28-28z" />
<glyph unicode="&#xe964;" glyph-name="bus" d="M219.2 126.6c-3.8 3.8-11.4 1-11.2-4.4 2-43 2.8-58 11-58h110.2c8.8 0 6.6 23 6.6 44-68.6-0.2-93.8-4.6-116.6 18.4zM804.8 126.6c3.8 3.8 11.4 1 11.2-4.4-2-43-2.8-58-11-58h-110.2c-8.8 0-6.6 23-6.6 44 68.6-0.2 93.8-4.6 116.6 18.4zM768 832h-512c-35.2 0-64-28.8-64-64v-552c0-44 36-80 80-80h480c44 0 80 36 80 80v552c0 35.2-28.8 64-64 64zM324 208.2c-29.6-2.4-54 22.2-51.8 51.8 1.8 23.2 20.6 42.2 44 44 29.6 2.4 54-22.2 51.8-51.8-2-23.4-20.8-42.2-44-44zM476 364h-195.6c-17.8 0-32.4 14.6-32.4 32.4v231.2c0 17.8 14.6 32.4 32.4 32.4h195.6c4.4 0 8-3.6 8-8v-280c0-4.4-3.6-8-8-8zM707.8 208.2c-29.6-2.4-54 22.2-51.8 51.8 1.8 23.2 20.6 42.2 44 44 29.6 2.4 54-22.2 51.8-51.8-1.8-23.4-20.6-42.2-44-44zM776 396c0-17.6-14.4-32-32-32h-196c-4.4 0-8 3.6-8 8v280c0 4.4 3.6 8 8 8h196c17.6 0 32-14.4 32-32v-232zM746 720h-468c-17.6 0-30 12.6-30 28s12.4 28 30 28h468c17.6 0 30-12.6 30-28s-12.4-28-30-28z" />
<glyph unicode="&#xe965;" glyph-name="business" d="M292 800h440c19.8 0 36 16.2 36 36s-16.2 36-36 36h-440c-19.8 0-36-16.2-36-36s16.2-36 36-36zM796 760h-568c-19.8 0-36-16.2-36-36 0-18.6 13.8-34.2 32-36v-600c0-26.4 21.6-48 48-48h176c8.8 0 16 7.2 16 16v80c0 8.8 7.2 16 16 16h64c8.8 0 16-7.2 16-16v-80c0-8.8 7.2-16 16-16h176c26.4 0 48 21.6 48 48v600c18.2 1.8 32 17.4 32 36 0 19.8-16.2 36-36 36zM384 232c0-8.8-7.2-16-16-16h-32c-8.8 0-16 7.2-16 16v32c0 8.8 7.2 16 16 16h32c8.8 0 16-7.2 16-16v-32zM384 360c0-8.8-7.2-16-16-16h-32c-8.8 0-16 7.2-16 16v32c0 8.8 7.2 16 16 16h32c8.8 0 16-7.2 16-16v-32zM384 488c0-8.8-7.2-16-16-16h-32c-8.8 0-16 7.2-16 16v32c0 8.8 7.2 16 16 16h32c8.8 0 16-7.2 16-16v-32zM384 616c0-8.8-7.2-16-16-16h-32c-8.8 0-16 7.2-16 16v32c0 8.8 7.2 16 16 16h32c8.8 0 16-7.2 16-16v-32zM544 232c0-8.8-7.2-16-16-16h-32c-8.8 0-16 7.2-16 16v32c0 8.8 7.2 16 16 16h32c8.8 0 16-7.2 16-16v-32zM544 360c0-8.8-7.2-16-16-16h-32c-8.8 0-16 7.2-16 16v32c0 8.8 7.2 16 16 16h32c8.8 0 16-7.2 16-16v-32zM544 488c0-8.8-7.2-16-16-16h-32c-8.8 0-16 7.2-16 16v32c0 8.8 7.2 16 16 16h32c8.8 0 16-7.2 16-16v-32zM544 616c0-8.8-7.2-16-16-16h-32c-8.8 0-16 7.2-16 16v32c0 8.8 7.2 16 16 16h32c8.8 0 16-7.2 16-16v-32zM704 232c0-8.8-7.2-16-16-16h-32c-8.8 0-16 7.2-16 16v32c0 8.8 7.2 16 16 16h32c8.8 0 16-7.2 16-16v-32zM704 360c0-8.8-7.2-16-16-16h-32c-8.8 0-16 7.2-16 16v32c0 8.8 7.2 16 16 16h32c8.8 0 16-7.2 16-16v-32zM704 488c0-8.8-7.2-16-16-16h-32c-8.8 0-16 7.2-16 16v32c0 8.8 7.2 16 16 16h32c8.8 0 16-7.2 16-16v-32zM704 616c0-8.8-7.2-16-16-16h-32c-8.8 0-16 7.2-16 16v32c0 8.8 7.2 16 16 16h32c8.8 0 16-7.2 16-16v-32z" />
<glyph unicode="&#xe966;" glyph-name="cafe" d="M739.4 152h-519.2c-15.2 0-28.2-11.6-28.8-26.8-0.8-16 12-29.2 28-29.2h519.2c15.2 0 28.2 11.6 28.8 26.8 0.6 16-12.2 29.2-28 29.2zM798.4 723c0.2 21.6-8.4 41.8-24.4 56.8-14.4 13.2-33.4 20.2-53 20.2h-547.4c-19.8 0-39.4-7.2-53.8-20.8-16.2-15.4-24.8-36.4-23.8-58.6 4.8-104.6 20.6-196.6 47.6-273.2 22-63.2 51.6-116.2 87.8-157.8 63.6-73.2 137.6-97.6 155.8-97.6h120.2c11 0 50 14.4 88.4 39 44.8 28.8 84.8 73.4 116.2 129.2 4-0.2 8-0.4 11.8-0.4 54.4 0 105.6 19.4 144.2 54.8 38.8 35.6 60.2 82.8 60.2 133.2-0.2 77.8-51.8 147-129.8 175.2zM739 416.8c28.4 69 47.2 152 55.6 246.8 0 0 0 0.2 0.2 0 20.6-10 38.2-24.4 51.6-41.8 16.8-21.8 25.6-47.4 25.6-74 0-68-58.4-124.2-133-131z" />
<glyph unicode="&#xe967;" glyph-name="calculator" d="M744 864h-464c-35.4 0-64-28.6-64-64v-704c0-35.4 28.6-64 64-64h464c35.4 0 64 28.6 64 64v704c0 35.4-28.6 64-64 64zM720 320v-160c0-26.6-21.4-48-48-48s-48 21.4-48 48v160c0 26.6 21.4 48 48 48s48-21.4 48-48zM720 480c0-26.6-21.4-48-48-48s-48 21.4-48 48 21.4 48 48 48 48-21.4 48-48zM560 160c0-26.6-21.4-48-48-48s-48 21.4-48 48 21.4 48 48 48 48-21.4 48-48zM560 320c0-26.6-21.4-48-48-48s-48 21.4-48 48 21.4 48 48 48 48-21.4 48-48zM560 480c0-26.6-21.4-48-48-48s-48 21.4-48 48 21.4 48 48 48 48-21.4 48-48zM400 160c0-26.6-21.4-48-48-48s-48 21.4-48 48 21.4 48 48 48 48-21.4 48-48zM400 320c0-26.6-21.4-48-48-48s-48 21.4-48 48 21.4 48 48 48 48-21.4 48-48zM400 480c0-26.6-21.4-48-48-48s-48 21.4-48 48 21.4 48 48 48 48-21.4 48-48zM304 640v96c0 17.6 14.4 32 32 32h352c17.6 0 32-14.4 32-32v-96c0-17.6-14.4-32-32-32h-352c-17.6 0-32 14.4-32 32z" />
<glyph unicode="&#xe968;" glyph-name="calendar" d="M848 768h-80v-48c0-8.8-7.2-16-16-16h-32c-8.8 0-16 7.2-16 16v48h-384v-48c0-8.8-7.2-16-16-16h-32c-8.8 0-16 7.2-16 16v48h-80c-44 0-80-36-80-80v-544c0-44 36-80 80-80h672c44 0 80 36 80 80v544c0 44-36 80-80 80zM864 168c0-22-18-40-40-40h-624c-22 0-40 18-40 40v360c0 8.8 7.2 16 16 16h672c8.8 0 16-7.2 16-16v-360zM320 816c0 8.8-7.2 16-16 16h-32c-8.8 0-16-7.2-16-16v-48h64v48zM768 816c0 8.8-7.2 16-16 16h-32c-8.8 0-16-7.2-16-16v-48h64v48z" />
<glyph unicode="&#xe969;" glyph-name="call" d="M873.8 230.4c-29.4 29.4-100 73.6-134.8 90.2-40.4 19.4-55.2 19-83.8-1.6-23.8-17.2-39.2-33.2-66.6-27.2-27.4 5.8-81.4 46.8-133.8 99-52.4 52.4-93.2 106.4-99 133.8-5.8 27.6 10.2 42.8 27.2 66.6 20.6 28.6 21.2 43.4 1.6 83.8-16.6 35-60.6 105.4-90.2 134.8-29.4 29.4-36 23-52.2 17.2 0 0-24-9.6-47.8-25.4-29.4-19.6-45.8-36-57.4-60.6-11.4-24.6-24.6-70.4 42.6-190 54.2-96.6 107.4-169.8 186.4-248.6l0.4-0.4c79-79 152-132.2 248.6-186.4 119.6-67.2 165.4-54 190-42.6s41 27.8 60.6 57.4c15.8 23.8 25.4 47.8 25.4 47.8 5.8 16.2 12.4 22.8-17.2 52.2z" />
<glyph unicode="&#xe96a;" glyph-name="camera" d="M627 410c0-63.513-51.487-115-115-115s-115 51.487-115 115c0 63.513 51.487 115 115 115s115-51.487 115-115zM835 640h-109c-9.2 0-17.8 4-24 10.8-56.8 63.6-78.2 85.2-101.4 85.2h-171c-23.4 0-46.4-21.6-103.4-85.4-6-6.8-14.8-10.6-23.8-10.6h-8.2v16c0 8.8-7.2 16-16 16h-52c-8.8 0-16-7.2-16-16v-16h-15c-35.4 0-67.2-26.4-67.2-61.4v-352c0-35 31.8-66.6 67-66.6h640c35.2 0 61 31.6 61 66.6v352c0 35-25.8 61.4-61 61.4zM520 239.2c-100.6-4.6-183.4 78.2-178.8 178.8 4 87.8 75 158.8 162.8 162.8 100.6 4.6 183.4-78.2 178.8-178.8-4-87.8-75-158.8-162.8-162.8zM704 524c-14.4 0-26 11.6-26 26s11.6 26 26 26 26-11.6 26-26-11.6-26-26-26z" />
<glyph unicode="&#xe96b;" glyph-name="car" d="M832 567.6c-27.6 61.6-98 184.4-200 184.4h-240c-102 0-169.6-118.8-200-184.4-48-46-96-91.4-96-169.6v-152c0-7.4 5.2-14 12.4-15.6 29.8-6.8 124.4-20.4 403.6-20.4s373.8 13.6 403.6 20.4c7.2 1.6 12.4 8.2 12.4 15.6v152c0 78-44.6 126.2-96 169.6zM380 704h264c81 0 124-120 124-140h-512c0 20 54 140 124 140zM224 296.6c-35.4 0-64 28.6-64 64s28.6 64 64 64 64-28.6 64-64c0-35.2-28.6-64-64-64zM656 360c0-17.6-14.4-32-32-32h-224c-17.6 0-32 14.4-32 32s14.4 32 32 32h224c17.6 0 32-14.4 32-32zM800 296c-35.4 0-64 28.6-64 64s28.6 64 64 64 64-28.6 64-64-28.6-64-64-64zM320 192c-95.8 0-192 10-192 10 0-34-0.6-58 12-58h170c12.6 0 10 26.4 10 48zM704 192c96 0 192 10 192 10 0-32 4-58-10-58h-172c-13.4 0-10 27-10 48z" />
<glyph unicode="&#xe96c;" glyph-name="card" d="M960 704c0 35.2-28.8 64-64 64h-768c-35.2 0-64-28.8-64-64v-96h896v96zM64 192c0-35.2 28.8-64 64-64h768c35.2 0 64 28.8 64 64v320h-896v-320zM348 288h328c15.4 0 28-12.6 28-28s-12.6-28-28-28h-328c-15.4 0-28 12.6-28 28s12.6 28 28 28zM204 288h24c15.4 0 28-12.6 28-28s-12.6-28-28-28h-24c-15.4 0-28 12.6-28 28s12.6 28 28 28z" />
<glyph unicode="&#xe96d;" glyph-name="cart" d="M367.981 112.911c0.489-26.504-20.601-48.387-47.105-48.876s-48.387 20.601-48.876 47.105c-0.489 26.504 20.601 48.387 47.105 48.876s48.387-20.601 48.876-47.105zM770.187 159.992c26.502-0.631 47.474-22.627 46.842-49.129s-22.627-47.474-49.129-46.842c-26.502 0.631-47.474 22.627-46.842 49.129s22.627 47.474 49.129 46.842zM927.6 695.6c-1.4 4.8-5.6 8-10.4 8.4l-651.4 63c-5.6 0.6-12.4 4.2-15 9.4-7.6 14.2-12.4 22.2-24.4 37.2-15.4 18.8-44.4 18.2-97.6 18.6-18 0.2-32.6-10.4-32.6-28.2 0-17.4 13.8-28.2 31.2-28.2s42.6-1 52-3.8c9.4-2.8 17-18.2 19.8-31.6 0-0.2 0-0.4 0.2-0.6 0.4-2.4 4-20.4 4-20.6l80-423.2c4.8-29 14.6-53 29-71.4 16.8-21.6 39-32.4 65.8-32.4h473.2c15.2 0 28.2 11.6 28.8 26.8 0.8 16-12 29.2-28 29.2h-474.4c-4 0-9.8 0-16.6 5.6-7 6-16.6 19.8-23 52l-8.6 47.4c0 0.6 0.2 1 0.8 1.2l555.4 94c5.2 0.8 9.2 5 9.8 10.4l32 231.6c0.4 1.6 0.4 3.4 0 5.2z" />
<glyph unicode="&#xe96e;" glyph-name="cash" d="M932 248.2h-840c-15.4 0-28-12.6-28-28s12.6-28 28-28h840c15.4 0 28 12.6 28 28s-12.6 28-28 28zM932 152.2h-840c-15.4 0-28-12.6-28-28s12.6-28 28-28h840c15.4 0 28 12.6 28 28s-12.6 28-28 28zM889.8 799.8h-755.6c-38.6 0-70.2-31.6-70.2-70.2v-355.6c0-38.6 31.6-70.2 70.2-70.2h755.6c38.6 0 70.2 31.6 70.2 70.2v355.6c0 38.6-31.6 70.2-70.2 70.2zM228 367.8h-72c-15.4 0-28 12.6-28 28s12.6 28 28 28h72c15.4 0 28-12.6 28-28s-12.6-28-28-28zM228 679.8h-72c-15.4 0-28 12.6-28 28s12.6 28 28 28h72c15.4 0 28-12.6 28-28s-12.6-28-28-28zM512 391.8c-88.2 0-160 71.8-160 160s71.8 160 160 160 160-71.8 160-160-71.8-160-160-160zM868 367.8h-72c-15.4 0-28 12.6-28 28s12.6 28 28 28h72c15.4 0 28-12.6 28-28s-12.6-28-28-28zM868 679.8h-72c-15.4 0-28 12.6-28 28s12.6 28 28 28h72c15.4 0 28-12.6 28-28s-12.6-28-28-28zM618 548c0-58.542-47.458-106-106-106s-106 47.458-106 106c0 58.542 47.458 106 106 106s106-47.458 106-106z" />
<glyph unicode="&#xe96f;" glyph-name="cellular" d="M816.8 856.4c-5.2 5-12.2 7.6-19.4 7.6-7.4 0-14.4-2.8-19.8-7.8-5.4-5.2-8.2-12-8.2-19.2s3-14 8.4-19.2c60.8-57 94.2-133 94.2-214.2 0-81-33.4-157-94.2-214.2-5.4-5-8.4-11.8-8.4-19.2 0-7.2 2.8-14 8.2-19.2 5.2-5 12.2-7.8 19.8-7.8 7.4 0 14.2 2.8 19.4 7.6 71.8 67.2 111.2 157 111.2 252.8v0.2c0 95.8-39.6 185.4-111.2 252.6zM702 766.4c-4.8 4.6-11.2 7-18 7-6.6 0-13-2.4-17.8-6.8-5-4.6-7.8-10.8-7.8-17.4s2.6-12.8 7.6-17.4c36-34 55.6-79.6 55.6-128s-19.8-94-55.6-128c-5-4.6-7.6-10.8-7.6-17.4s2.8-12.8 7.8-17.4c4.8-4.4 11-6.8 17.8-6.8s13.2 2.6 18 7c45.6 43.4 70.8 101 70.8 162.6v0.2c0 61.4-25.2 119-70.8 162.4zM246.2 817.8c5.4 5 8.4 11.8 8.4 19.2 0 7.2-2.8 14-8.2 19.2-5.2 5-12.2 7.8-19.8 7.8-7.4 0-14.2-2.8-19.4-7.6-71.8-67.2-111.2-157-111.2-252.8v-0.4c0-95.6 39.6-185.2 111.2-252.4 5.2-5 12.2-7.6 19.4-7.6 7.4 0 14.4 2.8 19.8 7.8 5.4 5.2 8.2 12 8.2 19.2s-3 14-8.4 19.2c-60.8 57-94.2 133-94.2 214.2-0.2 81.2 33.4 157.2 94.2 214.2zM358 731.8c5 4.6 7.6 10.8 7.6 17.4s-2.8 12.8-7.8 17.4c-4.8 4.4-11 6.8-17.8 6.8s-13.2-2.6-18-7c-45.6-43.4-70.8-101-70.8-162.6v-0.2c0-61.6 25.2-119.2 70.8-162.4 4.8-4.6 11.2-7 18-7 6.6 0 13 2.4 17.8 6.8 5 4.6 7.8 10.8 7.8 17.4s-2.6 12.8-7.6 17.4c-36 34-55.6 79.6-55.6 128-0.2 48.4 19.6 93.8 55.6 128zM512 713.6c-53 0-96-43-96-96 0-43.2 28.6-79.8 68-91.8v-466c0-15.4 12.6-27.8 28-27.8s28 12.4 28 27.8v466c39.4 12 68 48.6 68 91.8 0 53-43 96-96 96z" />
<glyph unicode="&#xe970;" glyph-name="chatboxes" d="M851.8 619.2h-443.2c-42 0-76.2-34.2-76.2-76.2v-308.6c0-42 34.2-76 76.2-76h253.6c5.6 0 11.2-2.4 15.2-6.4l126-116.2c7-6.8 18.6-4 18.6 5.8v101.2c0 12 7.6 15.8 19.6 15.8h2c42 0 84.2 33.8 84.2 76v308.4c0.2 42.2-34 76.2-76 76.2zM348.8 668.2h354.8v130.6c0 36-29.2 65.2-65.2 65.2h-477.2c-36 0-65.2-29.2-65.2-65.2v-330.4c0-36 29.2-65.2 65.2-65.2h122.2v199.8c0.2 36 29.4 65.2 65.4 65.2z" />
<glyph unicode="&#xe971;" glyph-name="chatbubbles" d="M862 318.8c0 8.8 2.4 17.2 6.6 24.4 1.2 2.2 2.8 4.2 4.2 6.2 34.8 52 55.2 114.2 55.2 180.6 0.6 184.4-155 334-347.4 334-167.8 0-307.8-114.2-340.6-265.8-4.8-22.2-7.4-44.8-7.4-68.4 0-184.6 149.6-338.2 342-338.2 30.6 0 71.8 9.2 94.4 15.4s45 14.4 50.8 16.6c5.8 2.2 12.2 3.4 18.6 3.4 7.2 0 14-1.4 20.2-4l113.4-40.2s4.8-2 7.8-2c8.8 0 16 7 16 16 0 2-1 5.4-1 5.4l-32.8 116.6zM637 175c-7.2-2-16.4-4.2-26.4-6.4-21-4.4-47.8-9-68-9-192.4 0-342 153.6-342 338.2 0 13.2 1.4 30 3 42.8 1.2 8.6 2.6 17.2 4.6 25.6 2 9 4.4 18 7 26.8l-16-14.2c-65.6-57.2-103.2-138.8-103.2-223.8 0-58.6 17-115 49.6-164 4.6-7 7.2-12.4 6.4-16s-23.8-124-23.8-124c-1.2-5.8 1-11.6 5.4-15.4 3-2.4 6.6-3.6 10.2-3.6 2 0 4 0.4 5.8 1.2l112.2 44.2c3.6 1.4 7.4 2.2 11.4 2.2 0 0 4.8 0.4 12.6-2.6 37.8-14.8 79.6-24 121.4-24 93.2 0 180.8 40.2 240.2 110.2 0 0 6.4 8.8 13.8 19.2-7.4-2.6-15.8-5.2-24.2-7.4z" />
<glyph unicode="&#xe972;" glyph-name="checkbox" d="M832 832h-640c-35.4 0-64-28.6-64-64v-640c0-35.4 28.6-64 64-64h640c35.4 0 64 28.6 64 64v640c0 35.4-28.6 64-64 64zM727 563l-267.6-268.6c-3.4-3.4-12.6-11-23.2-11-7.6 0-16.2 4.2-23.4 11.4l-112 112c-3.2 3.2-3.2 8.2 0 11.4l35.6 35.6c1.6 1.6 3.6 2.4 5.6 2.4s4-0.8 5.6-2.4l88.8-88.8 244 245.8c1.6 1.6 3.6 2.4 5.6 2.4 2.2 0 4.2-0.8 5.6-2.4l35-36.2c3.6-3.4 3.6-8.4 0.4-11.6z" />
<glyph unicode="&#xe973;" glyph-name="checkbox-outline" d="M832 832h-640c-35.4 0-64-28.6-64-64v-640c0-35.4 28.6-64 64-64h640c35.4 0 64 28.6 64 64v640c0 35.4-28.6 64-64 64zM840 136c0-8.8-7.2-16-16-16h-624c-8.8 0-16 7.2-16 16v624c0 8.8 7.2 16 16 16h624c8.8 0 16-7.2 16-16v-624zM727.2 574.2l-35.2 36.2c-1.4 1.6-3.6 2.4-5.6 2.4-2.2 0-4.2-0.8-5.6-2.4l-244-245.8-88.8 88.8c-1.6 1.6-3.6 2.4-5.6 2.4s-4-0.8-5.6-2.4l-35.6-35.6c-3.2-3.2-3.2-8.2 0-11.4l112-112c7.2-7.2 16-11.4 23.4-11.4 10.6 0 19.8 7.8 23.2 11h0.2l267.4 268.8c2.8 3.4 2.8 8.4-0.2 11.4z" />
<glyph unicode="&#xe974;" glyph-name="checkmark" d="M725.2 574.2l-35.2 36.2c-1.4 1.6-3.6 2.4-5.6 2.4-2.2 0-4.2-0.8-5.6-2.4l-244-245.8-88.8 88.8c-1.6 1.6-3.6 2.4-5.6 2.4s-4-0.8-5.6-2.4l-35.6-35.6c-3.2-3.2-3.2-8.2 0-11.4l112-112c7.2-7.2 16-11.4 23.4-11.4 10.6 0 19.8 7.8 23.2 11h0.2l267.4 268.8c2.8 3.4 2.8 8.4-0.2 11.4z" />
<glyph unicode="&#xe975;" glyph-name="checkmark-circle" d="M512 864c-229.8 0-416-186.2-416-416s186.2-416 416-416 416 186.2 416 416-186.2 416-416 416zM725 563l-267.6-268.6c-3.4-3.4-12.6-11-23.2-11-7.6 0-16.2 4.2-23.4 11.4l-112 112c-3.2 3.2-3.2 8.2 0 11.4l35.6 35.6c1.6 1.6 3.6 2.4 5.6 2.4s4-0.8 5.6-2.4l88.8-88.8 244 245.8c1.6 1.6 3.6 2.4 5.6 2.4 2.2 0 4.2-0.8 5.6-2.4l35-36.2c3.6-3.4 3.6-8.4 0.4-11.6z" />
</font>
</defs>
</svg>
